<svg width="225" height="152" viewBox="0 0 225 152" version="1.1" xmlns="http://www.w3.org/2000/svg" xmlns:sketch="http://www.bohemiancoding.com/sketch/ns"><title>logo</title><desc>Created with Sketch.</desc><g sketch:type="MSLayerGroup" stroke="none" stroke-width="1" fill="none" fill-rule="evenodd"><path d="M162.188 65.926s-5.286-4.955 8.217-8.104c2.376-.555 3.793-.775 4.422-.815 1.01-.065-6.436 5.385 2.945 8.336 0 0-12.875 6.25-15.584.583" fill="#DE761F" sketch:type="MSShapeGroup"/><path d="M197.348 78.353c-1.235-1.128-2.105-1.894-2.732-2.425-2.407-2.041-5.571-5.478-6.498-6.743-1.4-1.91-1.311-2.728-4.364-5.072-2.132-1.636-5.329-.177-7.155.712-10.827 5.268-13.436 3.037-15.077.101.172 2.201 2.727 6.32 10.375 3.417 12.926-4.907 1.542 9.282-11.087 21.43-.138.132 30.718-.6 31.074-.976.955-1.009 1.947-1.967 2.936-2.899 3.557-3.352 4.073-6.024 2.528-7.545" fill="#F78A33" sketch:type="MSShapeGroup"/><path d="M173.218 67.474c-3.081.864-6.733 2.395-9.821.742l8.237 10.47s8.387-8.98 6.425-11.048c-.92-.97-2.963-.868-4.841-.164" fill="#CE6A21" sketch:type="MSShapeGroup"/><path d="M183.309 63.847c1.472 2.23.123 6.246-5.725 14.19-1.931 2.624 4.48-3.844 6.295-6.295 1.932-2.608 2.213-3.822 1.931-5.796-.059-.413-2.619-2.278-2.501-2.099" fill="#DE761F" sketch:type="MSShapeGroup"/><path d="M174.844 57.006c.877 0-8.235 5.057 1.087 7.989 0 0 .353-.062.668-.17 1.328-.455 3.219-1.401 4.965-1.401.647 0 1.274.13 1.845.463l.158.104.187.122.114.09c.689.5 1.775 1.364 1.92 1.691 1.098 1.157 1.354 1.959 2.33 3.291.927 1.265 4.091 4.702 6.498 6.743.627.531 1.497 1.297 2.732 2.425 1.545 1.521 1.028 4.193-2.528 7.544-.989.932-1.981 1.891-2.936 2.9-.327.345-26.403.992-30.528.992-.364 0-.558-.005-.546-.016 3.851-3.705 7.714-7.595 10.824-11.087l-7.681-10.301-1.155-1.244s-5.896-6.17 7.607-9.319c2.376-.555 3.793-.775 4.422-.815l.017-.001m.001-2h-.001l-.146.005c-.931.059-2.617.366-4.747.863-5.957 1.389-9.295 3.55-10.205 6.605-.782 2.625.642 5.034 1.606 6.044l1.06 1.141 6.636 8.9c-2.586 2.826-5.817 6.104-9.625 9.767-.588.566-.774 1.433-.469 2.19.51 1.268 1.694 1.268 2.402 1.268 2.162 0 9.987-.172 16.746-.368 14.447-.418 14.491-.465 15.234-1.249 1.005-1.061 2.054-2.064 2.855-2.819 2.617-2.466 3.956-4.81 3.979-6.969.015-1.332-.476-2.527-1.419-3.456l-.054-.051c-1.118-1.022-2.056-1.854-2.788-2.474-2.399-2.034-5.405-5.346-6.178-6.4-.331-.452-.565-.83-.812-1.229-.397-.642-.807-1.305-1.524-2.089-.269-.386-.857-1.013-2.321-2.077l-.099-.078-.288-.197-.227-.147-.044-.026c-.836-.488-1.796-.736-2.852-.736-1.714 0-3.357.642-4.678 1.157-.312.122-.607.237-.878.332-2.079-.737-2.307-1.38-2.308-1.387-.029-.138.026-.724 1.966-2.422.606-.53 1.621-1.418 1.109-2.779-.301-.801-1.058-1.319-1.93-1.319" fill="#CE6A21" sketch:type="MSShapeGroup"/><path d="M210.561 100.21c-.38 0-1.272.16-2.774.536-12.591 3.147-33.995 3.777-33.995 3.777 2.916.897 6.269 1.254 9.744 1.254 6.851 0 14.168-1.392 19.49-2.783 5.324-1.393 8.655-2.785 7.535-2.784" fill="#EEC7C1" sketch:type="MSShapeGroup"/><path d="M215.28 92.129c.16-2.363.198-4.618-.419-6.79-.989-3.48-8.853-5.158-10.746-5.893-1.74-.675-5.037-2.098-7.394-3.764-.159 1.354 1.744 3 6.593 5.009 23.227 9.621-45.445 10.384-45.445 10.384-3.035-.021-3.046-1.313-2.019 3.27 2.073 9.25.778 20.613.842 22.25.03.78 1.651 10.274 4.501 10.415.199.01.774-.52.865-.725 3.489-7.817 27.113-16.039 47.228-17.157 4.88-.271 7.524-1.458 6.795-4.14-.635-1.724-.813-3.013-.95-3.823-.525-3.112.042-7.472.149-9.036" fill="#F78A33" sketch:type="MSShapeGroup"/><path d="M204.639 81.119c-2.913-1.324-6.282-2.288-7.918-5.099l-.518 12.653s12.256-1.462 12.088-4.308c-.078-1.334-1.763-2.574-3.652-3.246" fill="#DE761F" sketch:type="MSShapeGroup"/><path d="M215.201 86.82s.899 6.897-14.726 8.85c-4.197.525 14.21.961 14.584-1.469.787-5.115.142-7.381.142-7.381" fill="#DE761F" sketch:type="MSShapeGroup"/><path d="M157.943 109.845c-.25 3.5-.14 6.132-.25 6.75-.269 1.5 1.651 10.274 4.501 10.415.199.01.723-.283.865-.724.341-1.062 1.257-2.043 2.342-3.059 6.559-6.219 20.466-9.891 32.055-12.724" fill="#DE761F" sketch:type="MSShapeGroup"/><path d="M196.721 75.682c2.358 1.666 5.654 3.089 7.394 3.764 1.894.735 9.757 2.414 10.746 5.893.155.545.268 1.095.349 1.65l-.009-.169s.578 2.044-.034 6.62c-.183 2.022-.452 5.262-.036 7.725.137.81.315 2.099.95 3.823.729 2.682-1.916 3.869-6.795 4.14-3.905.217-7.941.704-11.937 1.402-11.568 2.829-25.409 6.497-31.948 12.697-1.085 1.015-2.001 1.997-2.342 3.058-.14.435-.65.725-.855.725h-.01c-.221-.011-.434-.089-.642-.196-.139.108-.275.196-.354.196h-.005c-2.85-.141-4.471-9.635-4.501-10.415-.064-1.637 1.231-13-.841-22.25-.654-2.916-.888-3.454-.19-3.454.4 0 1.104.176 2.208.184 0 0 23.477-.262 38.334-2.402l.002-.001-.002.001.518-12.653.01.014c-.017-.119-.024-.237-.01-.352m-.001-2c-.277 0-.555.057-.816.174-.645.289-1.09.897-1.17 1.599-.021.179-.026.361-.014.55l-.447 10.913c-14.569 1.893-36.201 2.155-36.426 2.157-.523-.004-.952-.06-1.331-.109-.307-.04-.572-.075-.854-.075-1.061 0-1.653.545-1.912.87-.779.979-.549 1.978-.091 3.97l.24 1.052c1.602 7.148 1.115 15.61.881 19.677-.07 1.211-.102 1.811-.087 2.213.005.12 1.284 12.082 6.401 12.335l.104.002c.168 0 .326-.019.473-.052.141.026.282.043.423.05l.11.003c1.166 0 2.377-.929 2.758-2.113.213-.662 1.077-1.529 1.805-2.21 6.049-5.735 19.16-9.305 30.992-12.2 4.02-.699 7.935-1.158 11.638-1.363 4.239-.236 6.787-1.141 8.02-2.85.54-.749 1.081-2.018.593-3.812l-.052-.165c-.513-1.394-.688-2.455-.816-3.231l-.039-.235c-.385-2.284-.094-5.561.052-7.17.639-4.818.041-7.137-.03-7.386l-.009-.032c-.088-.5-.199-.987-.331-1.452-1.106-3.892-7.004-5.685-10.528-6.756-.613-.186-1.142-.347-1.419-.454-1.021-.397-4.543-1.823-6.963-3.534-.343-.242-.748-.366-1.155-.366" fill="#CE6A21" sketch:type="MSShapeGroup"/><path d="M124.724 32.773l-.995-.535c-12.182-6.548-23.487-9.868-33.6-9.868-6.84 0-11.561 1.536-14.316 2.824l-1.385-2.659 14.517-8.362c2.297-1.105 5.26-1.665 8.806-1.665 7.716 0 17.689 2.648 26.678 7.083l.812.401.023.905c.025.918.228 2.578.451 3.804.182-.041.355-.056.51-.056 1.031 0 1.79.658 2.294 1.093l.25.212c1.191.366 1.799.559 2.168.854.639.209 1.242.31 1.818.31l.185-.004 5.703-.217-4.858 2.993c-.279.172-.533.365-.755.574l-.144.137-.176.094c-.838.449-2.201.985-3.939.985h-.001c-.876 0-1.749-.139-2.604-.413-.128.128-.284.295-.469.501l-.184.2-.789.809m-34.595-13.403c10.328 0 21.762 3.257 34.003 9.685.197-.193.392-.364.591-.506-1.698-.312-2.267-3.578-2.422-6.657-8.274-3.949-17.605-6.384-24.55-6.384-3.066 0-5.574.453-7.458 1.345l-4.762 2.745c1.423-.145 2.956-.228 4.598-.228m36.011 8.735h.119l.34.125.421.157c-.162-.12-.313-.251-.463-.38l-.191-.163-.226.261" fill="#CE6A21" sketch:type="MSShapeGroup"/><path d="M146.816 55.699l-.524-3.345 1.297-.447.627 1.415 1.207-.243-1.201.257.579 1.306-.56-.923.163.454.256.544-1.844.982zm.434-3.629l.705 1.323-.705-1.323z" fill="#CE6A21" sketch:type="MSShapeGroup"/><path d="M130.708 126.655l-1.959-2.272.012-.011c10.605-9.061 16.724-22.842 18.187-40.959.704-8.72.252-18.418-1.271-27.458h-.312l-.306-1.1c-.146-.53-.02-.929.204-1.233l-.03-.167.463-.254c.152-.113.303-.204.427-.278l1.863-1.116.017.092c2.189-1.269 5.54-3.281 7.797-4.86l1.871-1.31.459 2.238c4.759 23.243 4.091 55.593-26.124 77.709-.583.427-1.029.749-1.298.979zm17.855-71.617c1.74 10.129 4.734 36.623-6.476 57.397 13.673-15.766 18.221-36.431 13.534-61.664-2.488 1.613-5.389 3.318-7.058 4.267z" fill="#CE6A21" sketch:type="MSShapeGroup"/><path d="M145.133 16.654l1.086-3.559.074-.194c.325-1.128-.766-2.203-3.648-3.592-2.248-1.083-5.316-2.207-8.639-3.162-4.45-1.281-8.6-2.045-11.1-2.045-.693 0-2.527.001-2.893 1.225h-.001l-1.142 3.742c-5.108-.987-6.998-.843-7.387.513l-2.098 6.953c-.231.788-.472 1.845-.132 2.912.163.529.484 1.022.883 1.403.198.194.419.355.644.501.239.154.424.24.637.361.83.452 1.686.913 2.565 1.33 1.76.84 3.586 1.491 5.302 2.042.858.28 1.693.529 2.484.762.792.233 1.542.445 2.236.636l1.894.515 1.463.387 1.276.333-1.252-.414c-.397-.133-16.025-6.668-16.249-8.512-.097-.332-.111-.693-.067-1.058.044-.371 1.3-4.628 1.726-6.087.88.575 2.262 1.256 4.365 2.12 3.508 1.441 8.255 3.044 13.366 4.514 4.783 1.376 9.344 2.477 12.974 3.141 1.766.215 2.738.544 4.127.562.567.007.93.09 1.346.142l-.488 1.744c.14.037 1.676.502 1.757.526l1.04-3.366c.259-.902-.03-1.92-6.149-4.375m-22.227-10.717c2.303 0 6.363.755 10.593 1.972 5.906 1.699 9.446 3.466 10.622 4.365-.183.019-.421.032-.726.032-2.304 0-6.364-.756-10.593-1.972-5.906-1.699-9.447-3.466-10.623-4.365.183-.019.421-.032.727-.032m-8.893 4.324c.748.016 2.056.145 4.318.573l-.388 1.271c-1.81-.739-3.139-1.372-3.93-1.844m5.642 2.518l1.594-5.223c.589.431 1.383.884 2.407 1.378 2.247 1.083 5.315 2.206 8.639 3.162 4.449 1.28 8.599 2.044 11.1 2.044h.007l.585-.013-1.592 5.216c-3.033-.61-6.88-1.537-11.361-2.825-4.613-1.327-8.453-2.622-11.379-3.739m24.552 6.909l.389-1.273c2.036.824 3.248 1.426 3.962 1.838-.971-.042-2.445-.226-4.351-.565" fill="#EE7928" sketch:type="MSShapeGroup"/><path d="M61.443 97.984c6.609 14.495 19.738 24.574 24.871 28.115 2.972-.084 6.432 1.597 9.903 3.279 3.697 1.79 7.407 3.58 10.555 3.239 9.351-1.399 11.449-2.327 20.336-5.557 4.04-1.823 12.997-12.842 16.692-15.285.703-.589 1.387-1.197 2.062-1.813 3.285-12.491 6.756-24.942 8.851-37.69.698-6.083 1.056-12.186 1.078-18.316.007-2.181.3-4.288.828-6.3l-.027-.083.061-.05c3.618-3.723 4.456-6.953 5.014-9.679-.002-1.588-.391-3.311-1.385-5.123.1-1.292-6.464-8.756-14.312-8.372-3.09.152-6.33 1.227-9.116 2.439-5.297 2.304-6.393-4.338-15.609-7.959-.424-.166-.869-.329-1.323-.49h-.005c-6.529-.237-13.057-.45-19.59-.503-1.271.328-2.591.503-3.936.503l-.654-.032-.391.137c-.995.284-2.069.162-3.358.04-2.269-.214-5.204-.429-9.538 1.572-1.065.491-7.992 3.131-8.017 3.137-13.865 10.592-21.628 26.629-21.628 26.81 0 1.592-.299 13.798.09 14.075-3.193 1.909-11 6.757-11 15 0 10.712 6.923 18.993 17.661 18.993.637 0 1.266-.031 1.887-.087" fill="#CAEBF8" sketch:type="MSShapeGroup"/><path d="M148.097 53.317l-.145.057.003.019.142-.076" fill="#E96E24" sketch:type="MSShapeGroup"/><path d="M146.893 54.21c.718 4.002 9.272 48.738-17.17 71.314 3.644-3.124 38.054-22.972 26.937-77.256-4.197 2.937-11.98 7.267-9.767 5.942" fill="#F78A33" sketch:type="MSShapeGroup"/><path d="M53.639 67.756l.339.115-.009-.024-.33-.091" fill="#B3E2F1" sketch:type="MSShapeGroup"/><path d="M113.801 19.105l.058.033.05-.028-.108-.005" fill="#B3E2F1" sketch:type="MSShapeGroup"/><path d="M53.189 34.7l-.13.264c-.104.227-.234.446-.319.68l-.255.704c-.074.237-.12.481-.183.722-.074.24-.078.491-.116.737l-.043.371-.003.375.001.447c.276-1.655.629-3.076 1.048-4.3m6.758-6.864l-.601.186.601-.186m.023-.007l-.022.006-.001.001.023-.007m.645-.18l-.199.05.104-.026.095-.024m2.036-.416c-.398.058-.794.126-1.185.212-.288.055-.569.13-.851.204l.217-.046c.299-.06.597-.126.897-.175l.908-.107.153-.012-.139-.076" fill="#D6F0F7" sketch:type="MSShapeGroup"/><path d="M93.589 12.611c-.124-1.557-4.027-4.68-5.949-4.464-.48.054-.82.288-1.059.608-.718.962-.921 1.25-1.52-.405-.822-2.268-2.037-4.912-3.182-4.704-9.284-.089-23.453 5.046-22.323 7.921 1.98 5.041-4.321 7.561-4.321 7.561l5.871.927c3.341.434 5.817 1.578 8.576 3.484.776.536 1.405.863 2.137 1.44 5.359-2.222 22.589-6.599 23.004-6.405-.437-1.236-1.133-4.687-1.234-5.963" fill="#E34E25" sketch:type="MSShapeGroup"/><path d="M94.823 18.574c-.437-1.236-1.133-4.687-1.234-5.963-.124-1.557-4.027-4.68-5.949-4.464-.48.054-.82.288-1.059.608-.718.962-.921 1.25-1.52-.405-.822-2.268-2.037-4.912-3.182-4.704-9.284-.089-23.453 5.046-22.323 7.921 1.98 5.041-4.321 7.561-4.321 7.561l5.871.927c3.341.434 5.817 1.578 8.576 3.484.776.536 1.405.863 2.137 1.44l.628-.339.029.018.379-.225c7.763-3.883 21.572-6.045 21.968-5.859" fill="#F78A33" sketch:type="MSShapeGroup"/><path d="M93.912 14.187l-.102.001.008.044.099-.045h-.005" fill="#D16428" sketch:type="MSShapeGroup"/><path d="M93.81 14.188l.008.044-.008-.044" fill="#DE532B" sketch:type="MSShapeGroup"/><path d="M93.81 14.188c-1.174.022-11.769.461-20.03 9.092l20.038-9.048-.008-.044" fill="#E97733" sketch:type="MSShapeGroup"/><path d="M86.284 20.139c1.117-1.816 5.512-4.619 7.319-5.881.478-.333-2.043-4.129-1.538-4.404 1.35-2.047-1.939-1.064-2.663-1.008-.482.038-1.183-.258-1.433.054-.75.937-.522-.018-1.152.061-2.054.259-1.963-3.577-2.623-4.566-1.604 1.59-1.888 1.746-4.033 2.547-.157 2.99-.472 4.407-.629 6.925-.068 1.079 4.758-2.199 4.406-.944 2.519 2.203-3.2 4.538.054 5.665.595-1.123 1.438 2.515 2.292 1.551" fill="#DE761F" sketch:type="MSShapeGroup"/><path d="M143.194 61.711l-.31-1.254c-.19-.826-.415-1.614-.615-2.375-.43-1.514-.835-2.901-1.234-4.12-.393-1.22-.763-2.276-1.073-3.145-.323-.864-.568-1.548-.754-2.006l-.287-.704s.55.905 1.376 2.567c.403.834.898 1.849 1.394 3.042.514 1.188 1.05 2.546 1.582 4.049.523 1.506 1.076 3.146 1.541 4.916.258.879.46 1.798.699 2.73.211.939.417 1.901.594 2.886.17.986.355 1.987.481 3.011.067.511.15 1.024.204 1.543l.142 1.566c.108 1.048.121 2.113.186 3.177.004 1.068.039 2.14.001 3.212-.057 1.072-.084 2.145-.213 3.209l-.159 1.593-.241 1.574c-.3 2.095-.835 4.116-1.405 6.047-.125.488-.312.954-.473 1.421l-.5 1.382c-.351.904-.767 1.759-1.132 2.604-.808 1.658-1.646 3.187-2.544 4.519l-.635.99-.674.899c-.446.578-.852 1.138-1.262 1.64-.865.97-1.597 1.83-2.255 2.486-1.345 1.284-2.12 1.998-2.12 1.998s.668-.828 1.846-2.241c.578-.716 1.199-1.649 1.966-2.667.357-.529.705-1.113 1.089-1.716l.589-.925.55-1.009c.777-1.357 1.483-2.897 2.193-4.532.311-.837.671-1.68.964-2.568.26-.9.604-1.793.842-2.735.504-1.877.916-3.843 1.204-5.862l.217-1.52.138-1.54c.115-1.027.127-2.066.175-3.103.049-1.036.024-2.076.031-3.11-.053-1.035-.053-2.067-.149-3.088-.144-2.043-.357-4.053-.651-5.988-.139-.969-.328-1.913-.478-2.844" fill="#68C8CD" sketch:type="MSShapeGroup"/><path d="M69.638 11.171c-1.347.16 1.541-.371 1.424-.341.886-.231 1.774-.465 2.637-.776.924-.333 1.821-.72 3.135-1.443 2.61-1.436 4.303-2.611 6.241-4.286-.394-.478-.799-.751-1.196-.679-9.284-.089-23.453 5.046-22.323 7.921l.127.366c.256-.026.513-.041.773-.042 2.37-.012 4.673-.092 6.936-.245.723-.224 1.477-.384 2.246-.475" fill="#CAEBF8" sketch:type="MSShapeGroup"/><path d="M60.996 41.092c0-4.376 3.826-7.777 8.101-7.777.451 0 .895.045 1.332.118-.046-.321-.071-.648-.071-.982 0-2.354 1.113-4.42 2.801-5.832-3.238-2.603-6.996-5.156-6.981-5.219-9.341-1.812-17.441-1.867-19.697 10.671-.607 3.375 3.881 9.173 9.452 12.379l.001-.001c.176-.236.367-.459.569-.675l.101-.104c.176-.182.361-.355.553-.519l.125-.107c.21-.172.428-.335.654-.486l.066-.047c.258-.169.525-.325.801-.465l.025-.012c.252-.126.51-.238.774-.339l.237-.083c.2-.07.402-.132.608-.187l.287-.071.274-.05-.012-.212" fill="#CAEBF8" sketch:type="MSShapeGroup"/><path d="M66.563 30.373c-2.269-1.761-6.526-4.071-10.492-.78-3.603 3.119-.717 6.677-.717 6.677s2.105-9.816 10.831-5.577l.378-.32" fill="#ACDFEF" sketch:type="MSShapeGroup"/><path d="M61.77 35.701l-.706-.476c-.281-.157-.502-.399-.764-.594l-.191-.153-.168-.177-.339-.35c-.123-.109-.197-.254-.299-.378-.087-.133-.214-.242-.279-.387l-.237-.407c-.087-.131-.125-.282-.195-.418-.14-.274-.21-.566-.311-.838-.05-.282-.14-.549-.168-.807-.087-.513-.107-.963-.118-1.283-.01-.321 0-.512 0-.512s-.118.152-.255.457c-.071.152-.146.341-.215.565-.062.225-.138.484-.166.775-.054.29-.05.61-.048.952.045.336.052.707.177 1.067.083.373.251.731.431 1.091.08.187.212.341.324.51.123.16.224.343.369.484l.428.426.217.208.239.171c.323.219.626.464.966.601.263.121.516.244.766.339.119-.321.3-.617.542-.866" fill="#ACDFEF" sketch:type="MSShapeGroup"/><path d="M61.176 36.107c.257-.049.599-.295.834-.521l-.31-.302c-.226-.198-.419-.448-.651-.667-.243-.212-.409-.493-.626-.738l-.156-.189-.127-.207-.26-.413c-.098-.132-.141-.288-.216-.43-.057-.149-.159-.282-.193-.437l-.149-.446c-.058-.147-.064-.302-.105-.45-.081-.297-.09-.597-.132-.884.009-.286-.025-.566.001-.824.02-.52.092-.965.147-1.28l.105-.501s-.147.125-.343.395c-.101.134-.213.304-.326.509-.107.208-.235.445-.321.724-.113.273-.175.587-.243.922-.025.338-.094.703-.046 1.081.005.383.096.767.199 1.156.039.199.138.377.212.566.088.181.149.382.262.549l.331.505.17.247.2.217c.27.281.517.583.821.787.293.217.571.437.858.598l.064.033" fill="#68C8CD" sketch:type="MSShapeGroup"/><path d="M67.027 30.444c-.313-.317-.69-.666-1.143-1.019-.402-.315-.855-.642-1.372-.934-.516-.291-1.084-.576-1.714-.779-.627-.205-1.306-.369-2.017-.407-.71-.039-1.445.024-2.154.204-.707.191-1.37.508-1.969.882-.604.367-1.12.827-1.576 1.348-.455.514-.788 1.109-.994 1.712-.204.604-.265 1.214-.21 1.754.041.542.187 1.013.351 1.404.161.394.355.706.523.952.167.248.326.42.432.537l.17.171s-.169-.293-.365-.831c-.19-.534-.41-1.331-.342-2.241.035-.453.159-.923.368-1.379.223-.45.537-.889.928-1.284.386-.389.874-.749 1.385-1.055.512-.306 1.064-.544 1.637-.699.573-.158 1.169-.225 1.761-.206.591.019 1.181.095 1.743.243.561.151 1.104.329 1.606.545.499.222.97.45 1.394.685.482.267.899.526 1.263.763.086-.13.184-.253.295-.366" fill="#68C8CD" sketch:type="MSShapeGroup"/><path d="M151.562 36.021c-5.616-6.637-14.339.121-14.339.121 6.296-2.726 9.425-1.45 11.289.952v.63c-.17.29-.179.665-.394.95-.108.141-.183.306-.308.439l-.354.417c-.104.152-.272.251-.398.386-.142.12-.256.271-.419.37l-.458.332-.227.168-.251.136c-.339.17-.64.401-.994.524-.345.135-.661.321-.99.436-.332.103-.644.221-.935.332-.29.118-.568.193-.814.266-.247.069-.462.146-.641.205-.358.122-.566.21-.566.21s.213.046.591.094c.19.023.422.055.688.073.267.024.571.057.899.017.329-.019.69-.044 1.069-.091.379-.049.774-.166 1.184-.273.416-.087.813-.306 1.226-.491l.309-.147.29-.193.576-.401c.194-.131.346-.32.52-.478.162-.171.345-.32.474-.517.278-.375.543-.75.714-1.159.135-.242.217-.497.29-.747 2.145 2.053 1.433 5.218 1.433 5.218s4.021-3.48.536-7.779" fill="#ACDFEF" sketch:type="MSShapeGroup"/><path d="M74.29 23.518c-1.61.753-2.483 1.297-2.483 1.297l2.483-1.297" fill="#E77654" sketch:type="MSShapeGroup"/><path d="M81.614 55.576c.105-.888.203-1.8.298-2.668l.315-2.72c.121-.891.296-1.758.423-2.62l.8-4.982c.706-3.151 1.204-6.091 1.91-8.627.613-2.566 1.288-4.762 1.817-6.588.609-1.792 1.036-3.232 1.416-4.175.346-.96.568-1.46.568-1.46s-.29.46-.774 1.362c-.508.894-1.178 2.237-1.991 3.974-.748 1.759-1.719 3.884-2.576 6.414-.977 2.495-1.783 5.398-2.728 8.559l-1.21 4.993c-.206.865-.427 1.744-.602 2.644l-.479 2.75c-.265 1.579-.56 3.212-.823 4.864 1.175-.633 2.382-1.216 3.636-1.72" fill="#CAEBF8" sketch:type="MSShapeGroup"/><path d="M132.998 28.609c-.947.036-1.893-.141-2.797-.472-.675-.247.744.052-1.984-.788-.723-.222-1.889-2.308-3.043-.419-.665 1.089-1.365-4.352-1.409-5.994-11.934-5.889-26.759-8.975-34.17-5.411l-14.418 8.31c6.973-3.26 23.398-6.82 49.263 7.082.201-.208 1.23-1.448 1.587-1.3 2.541 1.049 4.73.419 5.974-.247.304-.287.639-.541.997-.761" fill="#F78A33" sketch:type="MSShapeGroup"/><path d="M148.097 53.317l-.145.057.003.019.142-.076" fill="#CE6A21" sketch:type="MSShapeGroup"/><path d="M158.868 55.927c-.339-2.55-1.608-5.13-2.166-7.855-.584.377-1.328 1.369-1.925 1.701l-1.919 1.06c-.626.336-1.211.696-1.806.963l-1.653.798c-.524.253-3.028.834-3.452 1.039.196 1.088 1.182 2.308 2.441 11.541 4.065-4.564 7.45-5.556 10.48-9.247" fill="#CE6A21" sketch:type="MSShapeGroup"/><path d="M92.284 43.376s-.24.668-.557 1.769c.344-1.068.557-1.769.557-1.769" fill="#BDE6F4" sketch:type="MSShapeGroup"/><path d="M153.451 38.548c-.112-.731-.373-1.478-.788-2.158-.415-.689-.912-1.319-1.529-1.862-.608-.549-1.302-1.046-2.071-1.409-.774-.349-1.602-.571-2.421-.67-.821-.101-1.631-.051-2.389.056-.761.104-1.469.314-2.118.542-.65.229-1.235.511-1.758.789-1.05.555-1.836 1.149-2.364 1.581-.525.439-.79.725-.79.725s.342-.186.951-.472c.61-.284 1.484-.673 2.55-1.038.534-.182 1.118-.348 1.733-.5.618-.146 1.276-.239 1.947-.297.673-.055 1.363-.023 2.043.076 1.75 2.79-.687 5.667-.687 5.667l-.188.211-.217.185c-.297.236-.544.524-.866.717-.309.202-.581.449-.879.629-.304.169-.585.348-.848.517-.259.175-.515.305-.741.427-.227.119-.423.238-.586.333-.325.192-.511.321-.511.321s2.08.432 5.399-1.817l.273-.207.244-.248.481-.511c.164-.168.274-.384.411-.575.124-.2.273-.383.358-.603.196-.425.378-.845.462-1.281.131-.422.127-.854.167-1.246-.01-.397-.017-.768-.09-1.103-.038-.305-.122-.575-.197-.816.619.293 1.197.675 1.716 1.124.522.454 1.006.965 1.369 1.488.367.531.636 1.097.8 1.657.146.564.193 1.126.141 1.651-.107 1.055-.52 1.921-.846 2.493-.333.575-.586.876-.586.876l.229-.162c.145-.112.362-.276.603-.525.242-.247.526-.565.791-.982.267-.414.53-.923.686-1.535.173-.606.228-1.316.116-2.048" fill="#68C8CD" sketch:type="MSShapeGroup"/><path d="M66.732 51.08l-.038-.083c-2.474-.345-3.563 1.672-3.557 3.514l-.104.05-.054.402c-.084 1.05.463 3.18 1.113 3.962 2.082-.125 3.476.159 5.571.614.677-.595 1.682-2.6 1.81-3.531-1.972-1.201-3.635-2.824-4.741-4.928" fill="#85D0D4" sketch:type="MSShapeGroup"/><path d="M68.68 55.45c.159 1.075-.563 1.801-1.463 1.885-.901.083-1.639-.506-1.798-1.581-.16-1.075.441-2.014 1.341-2.098.901-.084 1.76.72 1.92 1.794" fill="#509EA6" sketch:type="MSShapeGroup"/><path d="M61.89 54.036c-.222.126.786.671.541.698l-.465 2.635 5.2-1.8-4.785-3.462c-.418.226-.078 1.695-.491 1.929" fill="#CAEBF9" sketch:type="MSShapeGroup"/><path d="M67.941 52.36c-.227-.148-.454-.296-.688-.437-.636-.384-1.302-.73-1.982-1.039-1.362-.611-2.792-1.031-4.151-1.222-.68-.093-1.34-.139-1.964-.152-.625-.008-1.214.035-1.754.085-.54.054-1.032.14-1.464.224-.433.084-.806.18-1.111.263-.306.079-.543.16-.705.21l-.248.082.257-.021.723-.06c.311-.029.689-.044 1.12-.062.432-.02.919-.019 1.447-.006.528.014 1.098.045 1.697.119.598.064 1.226.163 1.866.307 1.284.277 2.619.733 3.904 1.341.645.298 1.274.642 1.885 1 .413.246.813.503 1.205.764-.101-.454-.112-.935-.037-1.396" fill="#68C8CD" sketch:type="MSShapeGroup"/><path d="M58.39 49.96c-.305-.027-1.715.01-1.998 0-2.046 5.456 1.659 10.548 1.696 10.597l.665-.521c-.036-.045-2.514-5.039-.363-10.076" fill="#68C8CD" sketch:type="MSShapeGroup"/><path d="M63.198 45.234s.134.248.343.689l.172.366.22.414c.157.294.321.625.532.976l.317.548.366.569c.235.397.537.781.818 1.195.315.391.612.813.966 1.202.334.404.705.787 1.072 1.174.383.371.757.752 1.158 1.094.387.357.796.677 1.183 1.001l.59.452c.191.152.383.293.575.426.378.272.735.533 1.078.757.338.231.654.437.937.618l.735.471c.412.257.645.418.645.418s-.274-.059-.747-.189c-.238-.062-.524-.148-.844-.267l-.515-.181-.557-.235-.604-.266-.629-.321c-.219-.108-.434-.234-.652-.367l-.666-.411c-.437-.304-.895-.611-1.321-.977-.445-.342-.85-.747-1.263-1.14l-.581-.629c-.198-.205-.359-.441-.539-.657l-.26-.33-.236-.343c-.153-.229-.31-.451-.449-.68-.263-.467-.53-.909-.722-1.361l-.289-.649-.222-.626c-.155-.393-.243-.779-.328-1.113l-.115-.466-.063-.4c-.076-.482-.105-.762-.105-.762" fill="#68C8CD" sketch:type="MSShapeGroup"/><path d="M83.647 95.841s11 8.625 22.875 6.75 18.875-11.5 16.75-23.875c-.25 11.376-11.125 26.25-39.625 17.125" fill="#85D0D4" sketch:type="MSShapeGroup"/><path d="M60.897 98.779l.546-.795s8.079 1.295 16.516-6.518c1.813 1.5 9.563 5.813 16.313 6.313-3.938.812-2.188 2.875-2.188 2.875s-8.937-3.688-13.625-8c-2.312 3.312-8.687 8.937-12.687 10.25-2.625-1.438-4.875-4.125-4.875-4.125" fill="#85D0D4" sketch:type="MSShapeGroup"/><path d="M76.33 93.572l-.338.255c-.38.306-.842.589-1.332.911-.483.333-1.041.633-1.627.967-1.19.631-2.571 1.274-4.148 1.742-1.571.476-3.323.81-5.187.895-1.863.082-3.831-.113-5.795-.594-1.965-.481-3.909-1.3-5.708-2.409-1.794-1.113-3.465-2.508-4.797-4.181-1.353-1.649-2.444-3.526-3.081-5.526l-.235-.748-.18-.741c-.054-.253-.131-.476-.169-.751l-.182-1.172-.031-.386-.063-.768c-.017-.51-.028-1.018-.015-1.52.087-2.002.476-3.929 1.231-5.613.726-1.696 1.755-3.148 2.841-4.368 1.115-1.197 2.273-2.186 3.378-2.959 1.106-.771 2.127-1.374 2.995-1.821 1.738-.897 2.814-1.248 2.814-1.248s-.276.054-.786.193c-.509.142-1.257.357-2.178.723-.922.363-2.026.859-3.225 1.564-1.203.697-2.496 1.616-3.752 2.814-1.236 1.21-2.456 2.7-3.33 4.525-.91 1.803-1.464 3.913-1.603 6.111-.031.549-.036 1.105-.032 1.662l.044.838.022.421.054.437c.066.536.125 1.071.264 1.662.063.287.118.582.197.862l.252.832c.687 2.225 1.872 4.313 3.347 6.144 1.485 1.832 3.329 3.339 5.298 4.534 1.968 1.21 4.128 1.997 6.261 2.468 2.138.476 4.272.57 6.258.387 1.989-.174 3.825-.653 5.437-1.267.399-.165.801-.299 1.171-.479l1.086-.526c.351-.175.672-.384.994-.565.319-.188.633-.362.915-.567.571-.397 1.12-.743 1.574-1.138.466-.378.901-.712 1.255-1.061l1.169-1.394-1.063.855" fill="#68C8CD" sketch:type="MSShapeGroup"/><path d="M56.701 63.537s-1.076.351-2.814 1.248c-.868.447-1.889 1.05-2.995 1.821-1.105.773-2.263 1.762-3.378 2.959-1.086 1.22-2.115 2.672-2.841 4.368-.755 1.684-1.144 3.611-1.231 5.613-.013.502-.002 1.01.015 1.52l.063.768.031.386.182 1.172c.038.275.115.498.169.751l.18.741.235.748c.637 2 1.728 3.877 3.081 5.526 1.332 1.673 3.003 3.068 4.797 4.181 1.799 1.109 3.743 1.928 5.708 2.409 1.674.41 3.351.613 4.964.613.279 0 .556-.007.831-.019 1.864-.085 3.616-.419 5.187-.895 1.577-.468 2.958-1.111 4.148-1.742.586-.334 1.144-.634 1.627-.967.49-.322.952-.605 1.332-.911l.338-.255.012.005 1.04-.864.011.004-1.169 1.394c-.354.349-.789.683-1.255 1.061-.454.395-1.003.741-1.574 1.138-.282.205-.596.379-.915.567-.322.181-.643.39-.994.565l-1.086.526c-.37.18-.772.314-1.171.479-1.612.614-3.448 1.093-5.437 1.267-.62.057-1.254.087-1.899.087-1.42 0-2.888-.146-4.359-.474-2.133-.471-4.293-1.258-6.261-2.468-1.969-1.195-3.813-2.702-5.298-4.534-1.475-1.831-2.66-3.919-3.347-6.144l-.252-.832c-.079-.28-.134-.575-.197-.862-.139-.591-.198-1.126-.264-1.662l-.054-.437-.022-.421-.044-.838c-.004-.557.001-1.113.032-1.662.139-2.198.693-4.308 1.603-6.111.874-1.825 2.094-3.315 3.33-4.525 1.256-1.198 2.549-2.117 3.752-2.814 1.199-.705 2.303-1.201 3.225-1.564.921-.366 1.669-.581 2.178-.723.51-.139.786-.193.786-.193m-.048-.245s-.282.055-.804.197c-.632.176-1.335.386-2.204.732-1.163.457-2.229.974-3.26 1.581-1.37.793-2.648 1.752-3.798 2.848-1.497 1.465-2.602 2.968-3.382 4.598-.923 1.827-1.486 3.974-1.628 6.204-.034.612-.035 1.219-.032 1.679l.044.849.023.421.072.59c.059.491.121.999.252 1.553l.045.214c.047.222.094.445.154.659l.254.837c.671 2.172 1.812 4.267 3.392 6.228 1.414 1.745 3.219 3.29 5.362 4.591 1.849 1.137 3.982 1.978 6.337 2.498 1.43.319 2.915.48 4.413.48.639 0 1.286-.03 1.922-.088 1.84-.161 3.692-.593 5.503-1.282l.423-.167c.255-.098.519-.2.769-.322l.08-.038 1.005-.487c.237-.118.458-.249.675-.378l.333-.195.16-.093c.274-.159.533-.31.779-.489l.395-.27c.431-.294.839-.57 1.196-.881l.268-.216c.363-.292.706-.568.998-.857.06-.056.243-.277.616-.731.21-.257.498-.608.549-.658l.203-.197-.217-.18-.069-.055-.099-.004c-.148 0-.264.096-.698.505l-.31.286-.015-.016-.179.135-.271.203-.067.051c-.299.241-.651.468-1.023.709l-.296.193c-.384.265-.816.508-1.273.766l-.341.193c-1.475.782-2.778 1.329-4.095 1.719-1.676.508-3.4.806-5.127.886-.271.011-.545.018-.82.018-1.616 0-3.266-.204-4.904-.606-1.955-.478-3.852-1.278-5.637-2.379-1.899-1.178-3.491-2.565-4.732-4.124-1.416-1.724-2.437-3.556-3.038-5.446l-.236-.747-.101-.411-.075-.319-.065-.266c-.038-.145-.076-.29-.098-.455l-.183-1.176-.029-.368-.063-.768c-.014-.436-.028-.964-.014-1.493.09-2.071.497-3.928 1.209-5.518.635-1.483 1.576-2.929 2.8-4.304 1.04-1.117 2.163-2.101 3.334-2.92 1.003-.699 2.001-1.307 2.967-1.804 1.696-.875 2.766-1.229 2.777-1.233l-.126-.482" fill="#68C8CD" sketch:type="MSShapeGroup"/><path d="M57.606 75.583s-.236-.033-.679-.063c-.44-.047-1.093-.053-1.916-.094-.827-.003-1.826-.023-2.973.027-1.146.007-2.436.15-3.838.231l-2.18.261-1.147.136-1.176.193c-.793.135-1.611.253-2.441.411-.824.189-1.67.359-2.528.541-.428.093-.863.175-1.296.279l-1.299.353c-.871.239-1.752.477-2.644.704-.883.26-1.762.564-2.65.846l-1.332.431c-.445.141-.89.284-1.322.466l-2.622.996c-.87.336-1.75.639-2.581 1.043-1.667.788-3.369 1.436-4.939 2.231-1.56.812-3.085 1.568-4.532 2.292l-3.964 2.248-1.769.997c-.565.315-1.066.665-1.556.966l-2.528 1.584c-1.411.87-2.231 1.356-2.231 1.356s.725-.609 2.016-1.653l2.346-1.869c.46-.351.931-.755 1.463-1.126l1.694-1.149c1.185-.793 2.455-1.683 3.846-2.547 1.42-.815 2.917-1.68 4.483-2.546.769-.461 1.613-.808 2.437-1.22.829-.402 1.672-.801 2.527-1.195.842-.421 1.736-.741 2.621-1.094l2.667-1.046c.443-.181.901-.322 1.358-.461l1.368-.427c.911-.278 1.812-.577 2.719-.833.914-.23 1.824-.446 2.723-.656l1.339-.314c.446-.091.894-.161 1.336-.241.884-.152 1.752-.312 2.604-.446.856-.114 1.699-.188 2.515-.279l1.208-.129c.397-.034.791-.046 1.178-.064l2.234-.09c1.435.018 2.746.009 3.907.119 1.16.056 2.166.209 2.991.311.824.133 1.466.253 1.901.359.435.094.662.161.662.161" fill="#68C8CD" sketch:type="MSShapeGroup"/><path d="M60.599 85.812s-.233.048-.661.167c-.43.104-1.048.316-1.837.553-.781.273-1.729.588-2.794 1.019-1.077.39-2.245.956-3.539 1.501l-1.968.974-1.035.512-1.044.575c-.703.392-1.434.777-2.163 1.203-.714.453-1.455.896-2.202 1.355-.373.23-.755.453-1.128.695l-1.107.767c-.741.516-1.492 1.035-2.257 1.547-.745.541-1.471 1.121-2.214 1.683l-1.111.852c-.373.282-.745.565-1.091.881l-2.138 1.816c-.708.607-1.436 1.186-2.084 1.845-1.308 1.299-2.695 2.48-3.91 3.753-1.198 1.287-2.383 2.51-3.505 3.675l-2.985 3.444-1.334 1.532c-.426.484-.782.982-1.143 1.43l-1.854 2.338c-1.039 1.291-1.649 2.023-1.649 2.023s.48-.816 1.348-2.232l1.586-2.545c.317-.485.625-1.023 1.003-1.551l1.212-1.648c.852-1.144 1.752-2.407 2.774-3.687 1.066-1.242 2.187-2.558 3.374-3.898.571-.691 1.25-1.3 1.889-1.964.647-.656 1.308-1.314 1.982-1.971.653-.678 1.389-1.279 2.105-1.907l2.164-1.878c.358-.318.742-.603 1.126-.888l1.146-.859c.767-.567 1.516-1.15 2.284-1.694.785-.523 1.57-1.03 2.348-1.528l1.157-.744c.39-.235.789-.45 1.178-.673.783-.44 1.547-.88 2.305-1.292.769-.393 1.539-.744 2.278-1.103l1.095-.525c.363-.165.731-.309 1.089-.454l2.075-.831c1.359-.463 2.591-.911 3.722-1.194 1.113-.335 2.111-.528 2.924-.707.821-.15 1.466-.252 1.911-.297.442-.056.678-.07.678-.07" fill="#68C8CD" sketch:type="MSShapeGroup"/><path d="M62.179 80.179s-.238-.001-.681.029c-.442.013-1.091.095-1.911.166-.82.107-1.813.222-2.943.427-1.134.162-2.393.477-3.771.746l-2.126.553-1.117.289-1.139.35c-.769.241-1.563.468-2.364.737-.792.297-1.607.58-2.432.876-.412.15-.831.29-1.246.451l-1.24.525c-.831.354-1.672.709-2.525 1.054-.84.377-1.67.797-2.512 1.196l-1.261.607c-.422.2-.845.401-1.248.64l-2.464 1.341c-.816.449-1.647.868-2.416 1.38-1.546 1.006-3.145 1.878-4.593 2.877-1.437 1.015-2.846 1.97-4.182 2.882l-3.625 2.763-1.618 1.226c-.517.388-.967.803-1.411 1.167l-2.292 1.911c-1.281 1.052-2.028 1.643-2.028 1.643s.637-.7 1.776-1.909l2.072-2.168c.408-.41.82-.874 1.298-1.314l1.523-1.366c1.068-.946 2.206-1.999 3.468-3.042 1.296-.999 2.663-2.059 4.098-3.128.7-.56 1.489-1.018 2.25-1.538.768-.51 1.55-1.019 2.343-1.524.778-.53 1.621-.969 2.45-1.438l2.502-1.396c.415-.239.849-.44 1.283-.64l1.298-.606c.865-.399 1.718-.817 2.581-1.193.875-.352 1.747-.688 2.61-1.017l1.285-.492c.43-.15.864-.279 1.291-.418.855-.271 1.694-.546 2.52-.794.833-.228 1.658-.415 2.455-.616l1.179-.29c.39-.087.778-.153 1.159-.222l2.201-.39c1.424-.176 2.722-.363 3.887-.41 1.158-.1 2.175-.085 3.006-.094.835.02 1.487.052 1.932.098.444.035.678.071.678.071" fill="#68C8CD" sketch:type="MSShapeGroup"/><path d="M85.716 40.225s.324.388.958.941c.308.284.728.57 1.189.871.484.268 1.041.512 1.639.627.606.081 1.232.042 1.864-.18.627-.25 1.267-.608 1.875-1.143l1.015-.873.536-.465c.184-.156.422-.31.633-.466l.658-.465c.223-.139.449-.269.678-.399.448-.275.925-.503 1.408-.722.965-.437 1.991-.752 3.021-.966.518-.098 1.042-.155 1.555-.207.522-.002 1.033-.047 1.539.003 1.009.076 1.979.26 2.847.584.434.165.856.309 1.23.536.377.213.752.389 1.062.645.312.248.635.444.886.702l.708.721c.414.473.713.932.961 1.293.425.784.625 1.23.625 1.23.001 0-.401-.32-1.028-.877-.344-.25-.758-.548-1.228-.864l-.787-.44c-.271-.156-.589-.261-.895-.401-.301-.153-.648-.234-.99-.341-.336-.124-.705-.18-1.077-.249-.739-.146-1.537-.174-2.352-.152-.407.01-.823.084-1.24.115-.416.085-.837.158-1.258.254-.834.232-1.68.491-2.485.873-.409.177-.815.36-1.198.59l-.587.317-.538.343-.545.351-.572.42-.543.393-.639.442c-.836.586-1.825.991-2.807 1.182-1.007.178-2.001.004-2.796-.317-.8-.336-1.376-.843-1.827-1.302-.433-.48-.741-.936-.952-1.33-.226-.383-.344-.715-.432-.931l-.111-.343" fill="#68C8CD" sketch:type="MSShapeGroup"/><path d="M108.722 34.535l-.438-.228c-.28-.138-.689-.314-1.191-.477-.246-.094-.528-.152-.813-.24-.295-.058-.598-.141-.922-.18l-.49-.07-.505-.036c-.338-.043-.685-.004-1.03-.011-.345.018-.69.053-1.029.086l-.989.176c-.314.09-.622.165-.916.238l-.809.27c-.251.086-.487.155-.684.246l-.521.216-.464.179.401-.291.473-.324c.179-.134.398-.253.643-.374s.504-.272.796-.387c.295-.109.607-.227.935-.337.334-.084.682-.169 1.039-.243.361-.044.729-.09 1.099-.116.37.014.743-.017 1.105.036.365.029.719.089 1.057.172.342.058.656.187.958.28.293.121.573.226.813.362.248.12.462.255.647.38.186.122.34.24.466.337.249.199.369.336.369.336" fill="#68C8CD" sketch:type="MSShapeGroup"/><path d="M85.852 66.906c-1.918-2.382-.864-6.677-.292-8.491-.658 1.87-2.235 6.111-2.636 5.05-.51-1.351-.838-15.14-.838-15.14s-2.457 15.676-2.545 13.253c-.088-2.401-1.876-2.387-2.258-4.811.212 1.617.943 8.261-.535 9.879 1.197.627 2.327 1.415 3.359 2.409.821.791.944 1.707.658 2.497l7.427 1.836s.134-3.408-2.34-6.482" fill="#E8F7FB" sketch:type="MSShapeGroup"/><path d="M89.917 69.534c-.453-.373-5.765-4.277-8.619-5.383-.507-.197-1.068-.246-1.08-.245-.011-.001-.45.009-1.08.245-2.865 1.074-8.165 5.01-8.618 5.383-3.152 2.596-3.461 6.578-.378 7.835.455.186 1.674.802 2.811-.401.539-.57.825-1.013 2.271.473.135.14 2.623 2.196 2.987 2.466.986.73 2.001.729 2.007.729 0 0 .888.021 2.008-.729.376-.252 2.852-2.326 2.987-2.466 1.446-1.486 1.732-1.043 2.271-.473 1.136 1.203 2.356.587 2.811.401 3.083-1.257 2.774-5.239-.378-7.835" fill="#509EA6" sketch:type="MSShapeGroup"/><path d="M82.455 66.875c.366.968.556 2.017.51 3.117-.092 2.221-1.102 4.162-2.619 5.577h.027c1.433 0 7.077-5.453 7.081-5.516-1.503-1.132-3.464-2.417-4.999-3.178" fill="#68ADB6" sketch:type="MSShapeGroup"/><path d="M123.94 79.689c.013-.686-.09-1.366-.16-2.036-.125-.664-.243-1.323-.453-1.948-.386-1.257-.914-2.433-1.572-3.459-5.436-8.488-14.699-9.67-15.415-9.883-.726-.173-1.45-.357-2.169-.503-.724-.118-1.428-.281-2.122-.354-.695-.064-1.359-.183-1.998-.194l-.12-.004.2.304c.599.052 1.219.192 1.864.286.68.108 1.371.306 2.077.46.702.182 1.408.402 2.115.609.697.248 1.401.466 2.079.734.678.267 1.349.518 1.982.805l.531.233c.449.224.909.461 1.392.73 1.361.77 2.862 1.716 4.33 2.958 1.466 1.235 2.903 2.784 3.981 4.689.55.944.963 2 1.251 3.108.16.55.233 1.129.334 1.705.041.587.121 1.174.09 1.777.017.6-.058 1.206-.115 1.814l-.011.115-.002.026-.143.764c-.06.323-.114.659-.208.922l-.248.846-.335.857-.168.431-.206.415c-.14.276-.268.559-.416.831-1.232 2.158-2.934 4.079-4.932 5.595-1.973 1.549-4.176 2.796-6.469 3.681-2.291.885-4.637 1.52-6.951 1.845-2.313.324-4.582.409-6.727.272-2.144-.138-4.166-.474-5.994-.96-.926-.205-1.777-.536-2.608-.783l-1.187-.45-.57-.216-.541-.245c-.71-.32-1.378-.617-1.972-.945-.415-.218-2.463-1.296-2.652-1.28.393.291 1.9 1.521 2.372 1.835.57.404 1.231.754 1.929 1.148l.534.299.565.273 1.183.569c.412.177.841.339 1.279.515.434.183.889.34 1.358.486.928.329 1.919.576 2.946.841 1.036.212 2.112.414 3.23.534 2.233.255 4.621.3 7.067.012 2.444-.285 4.96-.828 7.406-1.771 2.451-.922 4.834-2.228 6.999-3.902 2.161-1.676 4.046-3.817 5.422-6.286.166-.311.312-.636.468-.953l.23-.478.187-.499c.12-.336.248-.663.359-1.002l.279-1.065c.106-.365.146-.682.199-1.007l.116-.727.01-.061.01-.083.003-.032.009-.13c.049-.693.112-1.379.078-2.068" fill="#68C8CD" sketch:type="MSShapeGroup"/><path d="M99.931 61.308l.12.004c.639.011 1.303.13 1.998.194.694.073 1.398.236 2.122.354.719.146 1.443.33 2.169.503.716.213 9.979 1.395 15.415 9.883.658 1.026 1.186 2.202 1.572 3.459.21.625.328 1.284.453 1.948.07.67.173 1.35.16 2.036.034.689-.029 1.375-.078 2.068l-.009.13-.003.032.002-.006-.012.089-.01.061-.116.727c-.053.325-.093.642-.199 1.007l-.279 1.065c-.111.339-.239.666-.359 1.002l-.187.499-.23.478c-.156.317-.302.642-.468.953-1.376 2.469-3.261 4.61-5.422 6.286-2.165 1.674-4.548 2.98-6.999 3.902-2.446.943-4.962 1.486-7.406 1.771-1.158.136-2.304.198-3.426.198-1.247 0-2.465-.076-3.641-.21-1.118-.12-2.194-.322-3.23-.534-1.027-.265-2.018-.512-2.946-.841-.469-.146-.924-.303-1.359-.486-.437-.176-.866-.338-1.278-.515l-1.183-.569-.565-.273-.534-.299c-.698-.394-1.359-.744-1.929-1.148-.472-.314-1.979-1.544-2.372-1.835h.004c.216 0 2.236 1.063 2.648 1.28.594.328 1.262.625 1.972.945l.541.245.57.216 1.187.45c.831.247 1.682.578 2.608.783 1.828.486 3.85.822 5.994.96.655.042 1.322.063 1.998.063 1.537 0 3.122-.11 4.729-.335 2.314-.325 4.66-.96 6.951-1.845 2.293-.885 4.496-2.132 6.469-3.681 1.998-1.516 3.7-3.437 4.932-5.595.148-.272.276-.555.416-.831l.206-.415.168-.431.335-.857.248-.846c.094-.263.148-.599.208-.922l.143-.764.002-.026.011-.115c.057-.608.132-1.214.115-1.814.031-.603-.049-1.19-.09-1.777-.101-.576-.174-1.155-.334-1.705-.288-1.108-.701-2.164-1.251-3.108-1.079-1.905-2.515-3.454-3.981-4.689-1.468-1.242-2.969-2.188-4.33-2.958-.483-.269-.943-.506-1.392-.73l-.531-.233c-.633-.287-1.304-.538-1.982-.805-.678-.268-1.382-.486-2.079-.734-.707-.207-1.413-.427-2.115-.609-.706-.154-1.397-.352-2.077-.46-.645-.094-1.265-.234-1.864-.286l-.2-.304m-.497-.265l.294.41.19.289.065.108.127.012c.365.031.738.096 1.133.165l.715.119c.426.067.853.17 1.306.28l.755.176c.505.131 1.022.285 1.54.44l.558.165.736.254c.438.149.891.302 1.321.472l.438.172c.536.209 1.042.406 1.533.629l.391.17.142.064c.516.258.955.488 1.372.719 1.703.964 3.066 1.896 4.29 2.931 1.66 1.399 2.98 2.953 3.924 4.621.521.893.933 1.917 1.227 3.048.12.412.188.829.26 1.271l.069.414.035.433c.036.422.074.858.053 1.289.013.502-.035.985-.085 1.495l-.03.308-.01.114-.052.285-.091.483-.024.134c-.049.267-.099.542-.174.75l-.252.86-.197.506-.131.331-.168.43-.197.395-.154.313-.258.51c-1.201 2.104-2.884 4.013-4.863 5.515-1.954 1.534-4.109 2.76-6.408 3.647-2.33.9-4.651 1.515-6.896 1.83-1.574.221-3.154.333-4.694.333-.666 0-1.333-.021-1.982-.063-2.069-.133-4.07-.453-5.946-.952-.607-.134-1.179-.322-1.732-.504-.293-.096-.582-.191-.869-.276l-.414-.158-.755-.287-.379-.143-.192-.073-.273-.124-.253-.115-.152-.068c-.648-.292-1.26-.568-1.802-.868-2.494-1.311-2.666-1.311-2.769-1.311h-.758l.605.451.782.612c.607.481 1.295 1.027 1.6 1.23.472.335 1.006.633 1.571.948l.374.21.049.027.486.272.201.097.378.183.649.312.534.257c.293.127.586.242.883.359l.41.163c.388.164.827.321 1.377.493.86.305 1.768.538 2.729.785l.23.059c1.019.209 2.111.417 3.266.54 1.229.141 2.463.212 3.667.212 1.166 0 2.329-.067 3.456-.2 2.696-.314 5.208-.915 7.466-1.786 2.542-.955 4.918-2.28 7.062-3.937 2.236-1.734 4.134-3.934 5.487-6.362.115-.215.218-.431.322-.648l.153-.317.23-.48.196-.519.12-.33.243-.683.283-1.079c.092-.317.137-.603.18-.88l.023-.15.126-.788.013-.104h.001l.031-.429c.044-.598.089-1.216.059-1.832.01-.537-.052-1.085-.113-1.614l-.048-.436-.028-.154c-.116-.614-.235-1.248-.437-1.848-.398-1.296-.936-2.48-1.598-3.514-2.29-3.575-6.786-8.197-15.202-9.911l-.352-.077-.572-.138c-.542-.13-1.082-.261-1.619-.37l-.765-.137c-.454-.085-.922-.172-1.381-.22l-.724-.082c-.448-.055-.871-.107-1.296-.114l-.06-.002-.057-.002-.504-.015" fill="#68C8CD" sketch:type="MSShapeGroup"/><path d="M70.768 62.163l-.656-.181-.748-.197c-.287-.074-.613-.153-.969-.224-.353-.079-.737-.158-1.145-.217-.407-.068-.836-.12-1.279-.169-.444-.037-.901-.079-1.366-.083-.464-.02-.935-.001-1.404.016l-1.445.101c-.48.026-.985.023-1.454.012l-.695-.043-.666-.08c-.216-.026-.427-.07-.629-.112-.202-.04-.398-.085-.583-.145-.185-.052-.362-.112-.528-.178l-.242-.092-.222-.111c-.285-.141-.52-.304-.691-.459-.172-.16-.278-.312-.329-.424l-.052-.179.12.127c.089.071.232.15.419.226.197.064.43.137.714.177l.451.059c.158.02.326.033.504.036l.552.019.593.004c.407.001.839-.014 1.286-.029l.677-.031c.229-.008.458-.012.702-.033l.727-.037.749-.028c1.022-.017 2.041.094 2.97.293.93.197 1.764.495 2.457.782.691.3 1.237.599 1.61.826.372.228.572.374.572.374" fill="#68C8CD" sketch:type="MSShapeGroup"/><path d="M104.229 50.749c-2.325-.718-6.253-.357-6.883 3.644l-.134.062c-.034.167-.061.338-.077.512-.13 1.34.31 2.617 1.123 3.63 2.662-.114 5.364.219 8.032.845.944-.802 1.586-1.923 1.712-3.226.235-2.437-1.389-4.681-3.773-5.467" fill="#85D0D4" sketch:type="MSShapeGroup"/><path d="M104.406 55.713c.181 1.377-.757 2.288-1.909 2.376-1.153.087-2.082-.682-2.263-2.059-.18-1.376.607-2.563 1.759-2.65 1.152-.088 2.233.957 2.413 2.333" fill="#509EA6" sketch:type="MSShapeGroup"/><path d="M96.247 53.996c-.286.156.506.637.192.666l-.651 3.356 6.682-2.186-5.953-3.933c-.539.279.263 1.807-.27 2.097" fill="#CAEBF9" sketch:type="MSShapeGroup"/><path d="M87.134 54.032l.276.207c.184.126.454.308.817.462.362.149.813.285 1.307.243.491-.024 1.005-.224 1.504-.579.248-.181.496-.395.733-.646.251-.266.55-.552.835-.84.603-.584 1.267-1.181 1.985-1.752.719-.573 1.502-1.129 2.355-1.615.849-.492 1.771-.911 2.742-1.208.972-.292 1.992-.457 2.992-.458 1-.012 1.971.137 2.871.359 1.804.455 3.334 1.185 4.614 1.825.64.323 1.213.643 1.723.919s.945.536 1.308.74c.722.418 1.13.667 1.13.667s-.459-.128-1.251-.381c-.394-.131-.877-.281-1.422-.47l-1.831-.622c-.67-.223-1.392-.464-2.156-.687-.764-.22-1.569-.427-2.401-.564-.83-.144-1.687-.211-2.544-.164-.856.05-1.712.203-2.544.476-.834.264-1.639.643-2.412 1.073-.769.436-1.51.919-2.198 1.439-.351.249-.682.52-1.013.775l-.94.778c-.315.27-.596.53-.912.784-.333.266-.681.501-1.048.678-.727.366-1.531.484-2.186.355-.66-.129-1.15-.434-1.485-.725-.338-.294-.543-.57-.669-.765l-.18-.304" fill="#68C8CD" sketch:type="MSShapeGroup"/><path d="M90.956 62.819s.325-.198.905-.517c.295-.151.662-.326 1.089-.519.431-.173.917-.381 1.467-.552l.861-.261c.297-.097.617-.144.94-.221.646-.159 1.347-.222 2.07-.314.726-.026 1.482-.089 2.249-.019l.577.034.267.015.28.022 1.121.09c.721.023 1.43.058 2.152.033l.536-.009.529-.033c.35-.023.698-.038 1.037-.081.681-.063 1.335-.16 1.956-.264l.902-.174.84-.191.766-.209.689-.207.601-.204.509-.187.706-.291.247-.113-.203.183c-.138.114-.34.282-.615.474l-.46.309-.563.335-.658.351-.753.343-.837.334c-.293.108-.602.199-.918.303-.637.184-1.318.357-2.034.476-.356.077-.723.112-1.094.157l-.56.067-.568.029c-.756.06-1.549.027-2.329.006l-2.223-.203c-.707-.091-1.409-.071-2.09-.102-.679.039-1.343.029-1.967.11-.629.045-1.219.135-1.768.214-.277.029-.533.101-.784.141l-.711.132c-.437.109-.828.184-1.149.261-.64.17-1.012.252-1.012.252" fill="#68C8CD" sketch:type="MSShapeGroup"/><path d="M89.546 63.384l1.28-.778s.329-.201.915-.523c.304-.155.675-.334 1.105-.528l.25-.101c.369-.149.787-.319 1.247-.461l.862-.263c.197-.063.407-.107.622-.152l.332-.072c.529-.13 1.08-.196 1.663-.266l.434-.053.486-.022c.594-.027 1.202-.054 1.817.002l2.59.172c.594.022 1.182.043 1.777.021l1.277-.055c.271-.017.539-.032.801-.065.745-.069 1.431-.177 1.947-.264l1.905-.411 1.466-.433.394-.133.725-.275.459-.191 1.509-.694-.98.984-.217.197c-.145.119-.353.292-.635.489l-.463.312-.368.22-.875.478-.486.224-.397.173-.733.292-.602.202-.329.107c-.784.226-1.439.379-2.072.485-.288.063-.596.099-.895.134l-.77.091-.585.031c-.664.054-1.381.034-2.083.013l-.266-.007-2.239-.205c-.479-.061-.956-.071-1.418-.081l-.66-.019-.671.028c-.439.014-.854.028-1.253.08-.563.041-1.079.115-1.578.186l-.187.027-.464.08-.316.061-.251.046-.446.084-.699.159-.445.1c-.641.171-1.016.253-1.016.253l-1.464.321zm10.223-2.75c-.338 0-.673.015-1.004.031l-.469.02-.415.051c-.567.068-1.103.132-1.603.256l-.35.076c-.197.041-.389.08-.573.139l-.865.264c-.439.135-.847.301-1.207.446l-.241.097-.239.11.254-.061.471-.089.254-.045.299-.058c.163-.034.329-.068.504-.087l.178-.026c.508-.073 1.032-.148 1.6-.188.408-.054.834-.068 1.286-.082l.684-.028.673.018c.475.011.967.021 1.463.084l2.464.21c.684.019 1.375.04 2.036-.013l1.33-.12c.3-.035.583-.068.859-.128.625-.105 1.262-.254 2.018-.472l.325-.105.575-.192 1.103-.455.466-.214.849-.464.035-.02-.042.015-.915.285-1.623.403-.909.177c-.53.088-1.229.198-1.982.268-.264.033-.543.05-.825.067l-1.295.056c-.592.021-1.203 0-1.806-.021l-.683-.038-1.927-.135c-.258-.024-.506-.032-.753-.032z" fill="#68C8CD" sketch:type="MSShapeGroup"/><path d="M110.913 13.811l-.195-.044-.025.161c-.058.724-.38 1.882-.729 2.979 7.802.578 6.202 10.331 16.577 10.231.522.239 4.866-.021 5.336.228.738-.582 1.997-1.613 2.778-2.153 2.781-1.922 5.14-3.057 8.772-3.784l5.917-.933s-6.35-2.54-4.354-7.62c1.138-2.897-13.14-8.073-22.497-7.983-1.154-.21-2.378 2.455-3.206 4.741-.604 1.668-.809 1.378-1.532.408-.241-.323-.584-.559-1.068-.613-1.599-.179-4.557 1.934-5.611 3.56l.069.022" fill="#F78A33" sketch:type="MSShapeGroup"/><path d="M134.83 12.477c1.357.161-1.554-.374-1.435-.343-.894-.233-1.788-.469-2.658-.783-.931-.335-1.836-.726-3.16-1.454-2.63-1.447-4.336-2.631-6.289-4.319.397-.482.805-.757 1.205-.685 9.357-.09 23.635 5.086 22.497 7.983l-.128.368c-.258-.025-.517-.04-.779-.041-2.389-.013-4.71-.093-6.99-.247-.728-.226-1.489-.387-2.263-.479" fill="#CAEBF8" sketch:type="MSShapeGroup"/><path d="M149.711 19.992c-.127-.027-.243-.031-.355-.022-.532-.394-1.435-.728-1.72-.896-.368-.217-.725-.785-1.064-.686-1.016.299-.369-.277-.865-.537-1.617-.851.388-3.581.41-4.631-1.965.341-3.721.679-5.678.175-.183.296-3.315 2.668-5.292 4.351.828.764 1.276.916 1.882 1.839.621-.107 1.428.4 2.071.418 2.226.064 4.156.576 6.225 1.145-.434.125-.7.259-.313.329-.31-.04-.618-.094-.918-.169l-.036-.003c-.209.022-.415.05-.616.087-.339.113-6.076-1.716-6.413-1.597-.638.22-5.246 3.567-11.017 7.03-4.44-1.311-12.722-3.928-16.891-7.135 0 0 4.563 4.407 6.451 5.509 8.517 4.968 8.562 5.652 8.562 5.652l4.309-3.049c.782.126 1.475.234 2.082.807.001 0-.711 3.02-.434 1.862.656-.46 4.396-3.027 5.185-3.222.893-.833 2.044-1.394 3.287-1.579.94-.577 2.04-.912 3.187-.912.41 0 .814.045 1.208.126 2.17-.136 5.36-.856 5.919-.956l1.204-1.528c-.439-.077.064-2.316-.37-2.408" fill="#DE761F" sketch:type="MSShapeGroup"/><path d="M123.639 32.186c-.22-.139-22.393-13.856-46.564-8.875l-.606-2.939c25.383-5.228 47.828 8.682 48.77 9.276l-1.6 2.538" fill="#68C8CD" sketch:type="MSShapeGroup"/><path d="M71.6 10.353l-7.974-1.259.199-1.261 7.974 1.259-.199 1.261" fill="#fff" sketch:type="MSShapeGroup"/><path d="M77.863 8.046l-8.356-1.26.189-1.262 8.357 1.259-.19 1.263" fill="#fff" sketch:type="MSShapeGroup"/><path d="M133.703 12.222l-7.66-5.875.777-1.013 7.66 5.876-.777 1.012" fill="#fff" sketch:type="MSShapeGroup"/><path d="M139.893 12.957l-8.078-6.19.776-1.013 8.079 6.19-.777 1.013" fill="#fff" sketch:type="MSShapeGroup"/><path d="M145.133 16.653l1.086-3.558.074-.193c.325-1.129-.766-2.204-3.648-3.593-2.248-1.084-5.316-2.207-8.639-3.162-4.45-1.281-8.6-2.045-11.1-2.045-.693 0-2.527.001-2.893 1.225h-.001l-1.142 3.742c-5.108-.987-6.998-.843-7.387.513l-2.098 6.953c-.231.788-.472 1.845-.132 2.912.163.529.484 1.022.883 1.403.198.194.419.355.644.501.239.154.424.24.637.361.83.452 1.686.913 2.565 1.33 1.76.84 3.586 1.491 5.302 2.042.858.28 1.693.529 2.484.762.792.233 1.542.445 2.236.636l1.894.515 1.463.387 1.276.333-1.252-.414c-.397-.133-16.025-6.668-16.249-8.512-.097-.332-.111-.693-.067-1.058.044-.371 1.3-4.628 1.726-6.087.88.575 2.262 1.256 4.365 2.12 3.508 1.441 8.255 3.044 13.367 4.514 4.781 1.376 9.343 2.477 12.973 3.141 1.766.215 2.738.544 4.127.562.567.007.93.09 1.346.142l-.488 1.744c.14.037 1.676.502 1.757.526l1.04-3.366c.259-.902-.03-1.92-6.149-4.376zm-22.227-10.716c2.303 0 6.363.755 10.593 1.972 5.906 1.699 9.446 3.466 10.622 4.365-.183.019-.421.032-.726.032-2.304 0-6.364-.756-10.593-1.972-5.906-1.699-9.447-3.466-10.623-4.365.183-.019.421-.032.727-.032zm-8.893 4.324c.748.016 2.056.145 4.318.573l-.388 1.271c-1.81-.739-3.139-1.372-3.93-1.844zm5.642 2.518l1.594-5.223c.589.431 1.383.884 2.407 1.378 2.247 1.083 5.315 2.206 8.639 3.162 4.449 1.28 8.599 2.044 11.1 2.044h.007l.585-.013-1.592 5.216c-3.033-.61-6.88-1.537-11.361-2.825-4.613-1.327-8.453-2.622-11.379-3.739zm24.552 6.909l.389-1.273c2.036.824 3.248 1.426 3.962 1.838-.971-.042-2.445-.226-4.351-.565z" fill="#CE6A21" sketch:type="MSShapeGroup"/><path d="M92.385 14.549c.544-.135 1.252-.269 1.941-.315l-1.52-5.932-.001-.004c-.387-1.345-2.262-1.488-7.33-.508l-1.133-3.714-.001.001c-.364-1.215-2.184-1.216-2.871-1.216-2.482 0-6.599.759-11.014 2.029-3.298.948-6.343 2.063-8.573 3.138-2.86 1.378-3.943 2.444-3.62 3.564l.021.056-.003.001 1.294 3.602c-6.225 2.483-6.522 3.503-6.262 4.406.079.275.228.904.566 1.135.579-.228 1.518-.538 2.123-.699l.104-.026c.314-.081.626-.166.946-.228 1.088-.239 1.773.035 2.912.035.233 0 .581.04.813.052l-.603.027.157.209c.508.038 1.626-.367 2.57-.483 3.246-.666 7.043-1.609 11.007-2.749 5.071-1.459 9.782-3.05 13.263-4.48 2.035-.835 3.388-1.498 4.263-2.06l.951 4.159zm-21.427-7.91c4.198-1.208 8.226-1.958 10.512-1.958.303 0 .539.013.721.032-1.167.892-4.681 2.646-10.541 4.331-4.197 1.208-8.225 1.958-10.511 1.958h-.001c-.303 0-.538-.013-.72-.032 1.167-.892 4.68-2.646 10.54-4.331zm-14.943 12.248c.737-.425 2.007-1.054 4.176-1.922l.468 1.302c-2.05.375-3.625.576-4.644.62zm17.39-3.706c-4.282 1.231-7.983 2.13-10.938 2.736l-1.834-5.104.495.009h.011c2.482 0 6.599-.759 11.014-2.029 3.298-.948 6.343-2.063 8.572-3.138 1.017-.49 1.805-.939 2.389-1.367l1.582 5.183c-2.904 1.108-6.714 2.393-11.291 3.71zm12.989-4.379l-.385-1.261c2.245-.425 3.543-.553 4.285-.568-.785.468-2.103 1.095-3.9 1.829z" fill="#CE6A21" sketch:type="MSShapeGroup"/><path d="M85.429 45.764c.211.131.45.203.666.305.226.08.456.125.67.189.214.063.429.062.623.098.196.026.377.061.539.056l.422.01.372.019-.363.079-.424.08c-.164.042-.352.046-.559.047-.206-.005-.434.029-.67-.015-.235-.043-.492-.063-.745-.137-.244-.098-.52-.153-.761-.299-.242-.14-.498-.269-.71-.462-.229-.172-.419-.384-.602-.594-.184-.209-.322-.448-.46-.67-.254-.461-.419-.921-.516-1.322-.191-.806-.146-1.355-.146-1.355l.098.358c.058.227.177.541.323.907.081.181.163.378.27.575.094.204.229.397.351.605.138.197.285.399.452.585l1.17.941" fill="#68C8CD" sketch:type="MSShapeGroup"/><path d="M86.99 46.905l-.331-.028-.215-.033c-.181-.026-.369-.055-.555-.11l-.268-.094c-.181-.059-.369-.12-.551-.23l-.127-.072c-.211-.119-.429-.242-.623-.42-.23-.172-.434-.399-.621-.615-.172-.194-.302-.406-.428-.61l-.056-.092c-.246-.444-.433-.922-.547-1.394-.198-.837-.155-1.41-.153-1.434l.128-1.581.365 1.544.094.343c.062.24.195.582.316.887l.042.094.216.454c.066.144.145.269.224.396l.123.202c.113.158.258.361.422.543l1.14.914.361.164.257.111.36.1.274.075c.116.034.235.046.349.058l.248.034.132.018.327.033.462.01.387.02 1.485.122-1.444.369-.377.082-.425.081c-.175.045-.378.05-.605.051l-.197.003-.189.005zm-2.853-1.86c.157.18.316.349.502.489.171.154.355.259.551.369l.054.031-1.107-.889z" fill="#68C8CD" sketch:type="MSShapeGroup"/><path d="M54.771 44.05l.17-.167c-.404-.338-.804-.68-1.195-1.031-.8-.733-1.58-1.483-2.306-2.28-.363-.398-.719-.8-1.063-1.211-.338-.416-.668-.836-.976-1.271-.304-.436-.605-.874-.873-1.328-.139-.225-.275-.451-.392-.685-.119-.234-.257-.459-.356-.7-.103-.239-.221-.473-.314-.715l-.266-.727-.206-.741c-.068-.246-.101-.498-.155-.746-.062-.247-.059-.501-.091-.751-.035-.25-.028-.5-.023-.75l.003-.375.043-.371c.038-.246.043-.497.116-.737.064-.241.109-.485.183-.722l.255-.704c.085-.234.215-.453.319-.68l.167-.338.204-.321c.139-.212.26-.434.413-.638l.473-.604c.149-.208.333-.391.51-.579l.497-.527.644-.449c.227-.159.446-.333.688-.467.473-.286.94-.586 1.441-.817.485-.266.999-.46 1.508-.666.254-.108.522-.17.782-.258.261-.084.522-.167.792-.218l.801-.182.814-.123c.27-.049.547-.047.82-.073l.411-.029.413.003c.552-.014 1.102.041 1.653.088l.824.116c.275.038.545.106.819.158.275.048.543.128.813.198.272.068.541.145.806.238.537.164 1.059.375 1.584.583l.779.336.766.368c.505.261 1.005.533 1.495.825.491.29.976.594 1.453.913.475.319.938.658 1.4 1.002l.181.144.353-.248-.242-.24c-.421-.406-.866-.787-1.316-1.162-.453-.372-.917-.732-1.394-1.077-.481-.339-.976-.659-1.478-.97l-.769-.444-.787-.414c-.534-.26-1.077-.505-1.637-.713-.276-.114-.559-.213-.845-.301-.285-.092-.568-.193-.86-.262-.579-.164-1.17-.284-1.765-.387-.601-.073-1.202-.151-1.81-.157l-.455-.017-.456.015c-.303.018-.61.008-.911.051l-.908.107c-.301.049-.599.115-.898.175-.301.055-.592.142-.883.232-.29.094-.589.162-.871.277-.566.221-1.138.433-1.674.717-.555.25-1.068.569-1.589.877-.521.308-.994.681-1.488 1.026l-.042.029-.617.667c-.194.211-.393.417-.562.654l-.527.689c-.17.234-.311.493-.468.738l-.228.373-.193.397c-.121.268-.265.525-.364.803l-.283.841c-.079.285-.128.58-.191.869-.074.287-.076.587-.109.881l-.035.442.009.443c.004.295.009.59.057.88.044.29.057.586.134.867.069.283.121.572.206.848l.276.822.339.791c.117.262.258.509.386.763.124.258.283.492.426.736.141.246.299.479.46.71.309.471.661.908 1.015 1.34.357.43.733.84 1.114 1.244.391.394.78.788 1.194 1.155.823.737 1.676 1.436 2.57 2.075.422.303.855.589 1.292.867" fill="#68C8CD" sketch:type="MSShapeGroup"/><path d="M54.841 44.687l-.338-.215c-.446-.284-.887-.574-1.316-.883-.853-.61-1.708-1.3-2.611-2.108-.41-.363-.796-.753-1.184-1.143-.429-.453-.812-.872-1.175-1.31-.353-.429-.723-.887-1.049-1.385-.161-.23-.327-.476-.476-.734l-.135-.225c-.108-.177-.216-.355-.307-.543l-.129-.248-.263-.528-.343-.798-.29-.861c-.064-.207-.109-.408-.154-.61l-.063-.278c-.055-.2-.083-.421-.109-.642l-.034-.268c-.055-.325-.059-.657-.063-.949l-.009-.44.023-.348.037-.412c.019-.235.041-.47.099-.698l.055-.264c.041-.206.083-.412.139-.614l.291-.866c.075-.21.167-.402.261-.593l.185-.391.143-.29.398-.652c.108-.177.215-.354.336-.52l.534-.699c.147-.207.328-.405.511-.601l.78-.827.479-.342c.353-.256.706-.511 1.082-.732l.215-.128c.452-.269.919-.548 1.422-.775.476-.253 1.004-.458 1.515-.655l.184-.072c.192-.078.4-.139.608-.2l.29-.087c.316-.098.628-.19.948-.248l.187-.038c.239-.05.478-.1.72-.139l.929-.11c.204-.029.421-.036.638-.041l.77-.028.492.017c.584.007 1.171.078 1.738.147l.112.013c.747.129 1.325.256 1.842.403.222.052.46.13.697.208l.181.058c.295.092.591.196.882.315.504.188 1.038.421 1.666.727l1.585.874c.525.324 1.028.649 1.517.995.49.354.962.72 1.423 1.097.463.387.916.776 1.346 1.19l.696.684-.533.339-.237.164-.399.285-.471-.372c-.449-.334-.906-.668-1.374-.983-.468-.313-.945-.612-1.428-.897-.483-.289-.975-.555-1.47-.811l-1.514-.69c-.559-.221-1.038-.413-1.532-.563-.27-.094-.524-.168-.78-.232l-.199-.053c-.192-.051-.384-.103-.58-.137l-.31-.063-.493-.093-.96-.128c-.425-.036-.85-.073-1.275-.073l-.16.002-.428-.003-.373.027-.301.022c-.156.009-.312.017-.465.045l-.828.125-.418.095-.353.082c-.262.049-.503.127-.744.205l-.295.092c-.15.044-.299.088-.444.149l-.243.099c-.43.172-.836.336-1.221.547-.423.196-.793.422-1.186.662l-.237.144c-.173.096-.319.204-.466.31l-.795.558-.55.583c-.133.139-.268.278-.378.433l-.487.622-.234.358-.354.56-.078.161-.064.133-.122.249-.174.379-.258.71-.098.387-.069.285c-.046.151-.058.287-.073.422l-.033.264-.016.131-.022.195-.002.348c-.005.255-.011.466.018.675l.028.29c.011.138.019.275.053.41l.061.306.091.43.205.738.255.691.183.42.12.267c.063.153.138.29.213.428l.129.245c.112.222.241.435.372.647.268.453.561.88.858 1.306.3.423.624.834.954 1.242.335.399.686.796 1.044 1.189.626.687 1.328 1.381 2.275 2.248.383.345.778.682 1.178 1.016l.427.357-.848.831zm3.73-24.539l-.419.016-.323.012c-.18.005-.359.009-.537.034l-.919.108-.654.128-.202.041c-.292.053-.564.136-.836.22l-.313.094c-.174.05-.349.1-.516.168l-.194.075c-.505.196-.983.381-1.435.621-.48.218-.902.469-1.35.736l-.218.13c-.35.206-.677.443-1.004.681l-.453.324-.661.715c-.152.165-.306.328-.438.514l-.537.704c-.098.134-.19.287-.282.44l-.386.629-.106.222-.192.402c-.077.158-.155.316-.214.482l-.281.833-.114.517-.062.299c-.048.19-.06.368-.075.547l-.038.424-.019.26.009.418c.003.273.007.552.05.808l.04.31c.02.171.038.342.084.508l.072.312c.038.175.076.35.129.52l.272.81.325.753.232.465.141.271c.08.166.172.314.262.462l.149.248c.135.234.286.455.438.673.307.469.658.904.992 1.309l.098.118-.093-.13c-.314-.449-.621-.898-.896-1.363-.141-.229-.284-.467-.408-.715l-.116-.219c-.092-.169-.183-.339-.255-.515l-.108-.239-.211-.487-.269-.735-.218-.778c-.047-.171-.08-.343-.111-.514l-.051-.261c-.044-.173-.061-.366-.076-.559l-.022-.235c-.036-.255-.033-.519-.028-.782l.004-.409.03-.293.046-.37c.022-.199.046-.396.106-.589l.057-.237.127-.487.259-.717c.063-.174.143-.336.224-.496l.113-.229.064-.133.118-.235.365-.58c.092-.15.185-.299.292-.441l.479-.612c.125-.176.289-.351.455-.525l.659-.684.824-.577c.179-.13.359-.258.55-.365l.218-.133c.4-.244.813-.496 1.257-.701.406-.224.859-.406 1.298-.582l.232-.094c.171-.073.357-.129.542-.185l.267-.082c.288-.094.571-.182.861-.236l.315-.074.483-.109.834-.126c.179-.032.375-.045.57-.056l.277-.02.424-.03.451.002.169-.002c.454 0 .907.038 1.36.077l1.015.133.559.105.283.058c.218.037.439.096.661.156l.186.049c.281.071.565.153.844.251.507.153 1.019.357 1.514.554l.855.365-.742-.388c-.584-.286-1.09-.506-1.579-.688-.278-.115-.546-.208-.818-.293l-.191-.062c-.21-.069-.42-.139-.636-.19-.512-.145-1.04-.261-1.736-.381l-.088-.01c-.565-.069-1.099-.134-1.642-.14l-.468-.018z" fill="#68C8CD" sketch:type="MSShapeGroup"/><path d="M80.076 23.655c.383-.159.768-.308 1.157-.447.388-.14.778-.272 1.17-.398l.667-.214-.532.464c-.759.662-1.536 1.302-2.338 1.912l.021-.149.384.636.366.648-.476-.572-.458-.585-.059-.077.079-.073c.742-.68 1.509-1.332 2.295-1.962l.134.25c-.397.109-.796.212-1.197.308-.401.097-.806.183-1.213.259" fill="#86CAD6" sketch:type="MSShapeGroup"/><path d="M162.658 37.512c-.013-.343-.009-.689-.041-1.031l-.153-1.019c-.057-.339-.17-.661-.253-.993l-.14-.492-.186-.473c-.128-.313-.238-.637-.385-.939l-.462-.895c-.145-.306-.331-.581-.51-.862 0 0-1.157-1.662-2.105-2.404-.533-.458-1.055-.927-1.638-1.326-.556-.434-1.166-.792-1.769-1.16-.298-.188-.627-.328-.939-.493-.314-.162-.63-.322-.963-.445-.329-.13-.656-.266-.99-.383l-1.017-.307c-.336-.109-.688-.16-1.031-.242l-.518-.111-.524-.073c-.697-.116-1.4-.149-2.101-.187-.702-.004-1.402.013-2.097.084-.348.019-.692.077-1.037.124-.345.043-.688.098-1.027.172-.682.125-1.353.295-2.016.484l-.984.313-.969.352c-.638.252-1.269.518-1.887.808-.616.298-1.219.615-1.813.948-.591.338-1.176.682-1.74 1.061-1.131.749-2.793 1.792-3.619 2.815 1.117-.754 2.695-1.751 3.883-2.362.597-.299 1.196-.592 1.804-.862.61-.267 1.226-.516 1.846-.747.62-.235 1.247-.444 1.877-.64l.951-.266.959-.225c.642-.132 1.282-.267 1.929-.345.322-.052.645-.086.969-.108.324-.026.647-.063.971-.062.323-.004.646-.026.968-.014l.966.034c.64.058 1.28.108 1.907.235l.473.081.464.117c.308.085.624.139.923.249l.905.306.88.372c.297.112.58.26.861.41.279.153.573.278.841.453.54.34 1.089.666 1.59 1.069.525.365.998.803 1.481 1.226 2.022 1.512 2.908 4.116 3.024 4.387l.168.408.122.42c.073.281.177.558.226.843l.149.856c.037.286.039.575.063.863.035.289-.011.577-.017.866l-.027.433-.072.429c-.045.287-.088.575-.179.854-.086.279-.136.569-.256.84-.112.272-.201.554-.329.821l-.386.805-.452.778c-.155.258-.337.501-.504.753-.163.256-.365.485-.549.728-.182.244-.383.475-.588.703-.398.465-.831.905-1.267 1.342-.441.434-.904.847-1.374 1.255-.478.399-.966.787-1.462 1.168-.883.681-1.81 1.309-2.753 1.915-4.939 2.774-6.955 2.579-7.413 2.873 7.196-.309 13.459-6.061 13.79-6.341.493-.421.984-.85 1.433-1.326.231-.231.459-.466.67-.718.213-.251.443-.486.636-.755.198-.264.41-.519.597-.794l.548-.835.483-.884c.154-.299.271-.618.407-.928.146-.306.221-.642.33-.964.114-.322.179-.658.244-.995l.1-.505.05-.512c.022-.343.081-.686.054-1.03" fill="#68C8CD" sketch:type="MSShapeGroup"/><path d="M141.491 54.678l1.555-.999c.195-.126.436-.174.837-.254.966-.195 2.976-.599 6.6-2.635 1.062-.683 1.926-1.283 2.695-1.875.49-.377.973-.76 1.446-1.155.454-.395.909-.801 1.343-1.228.408-.41.843-.851 1.24-1.311.2-.226.392-.445.566-.677l.198-.255c.115-.144.23-.288.329-.442l.197-.291.3-.451.45-.773.366-.769c.075-.155.135-.317.194-.478l.122-.317c.075-.166.114-.326.156-.484l.087-.315c.081-.248.118-.497.156-.746l.079-.471.012-.211.009-.173.014-.279c.012-.164.026-.327.005-.491l-.023-.363-.039-.498-.147-.841c-.026-.156-.076-.315-.124-.475l-.092-.321-.041-.142-.072-.247-.203-.497c-.888-2.276-2.02-3.461-2.814-4.054l-.274-.241c-.401-.354-.779-.689-1.192-.976-.433-.346-.87-.619-1.333-.907l-.238-.148c-.164-.107-.329-.189-.495-.272l-.32-.167c-.257-.136-.52-.275-.798-.38l-.399-.171-.483-.202-.886-.299c-.186-.069-.366-.111-.544-.153l-.352-.089-.888-.186c-.551-.111-1.092-.16-1.667-.212l-.202-.018-1.12-.036-.4.009-.364.009c-.249 0-.478.021-.709.041l-.225.019c-.316.022-.623.054-.93.104-.607.074-1.182.191-1.789.316l-1.064.247-.931.26c-.607.189-1.224.395-1.835.626-.613.229-1.221.474-1.821.738-.602.266-1.192.556-1.783.851-1.168.602-2.743 1.598-3.826 2.33l-2.765 1.867 2.096-2.596c.799-.99 2.246-1.941 3.408-2.705l.324-.213c.583-.391 1.194-.75 1.768-1.078.607-.34 1.219-.662 1.843-.964.633-.297 1.273-.567 1.922-.823l1.985-.677c.778-.222 1.452-.384 2.077-.499.337-.073.695-.131 1.055-.176l.216-.031c.284-.04.569-.08.856-.096.562-.058 1.192-.086 1.959-.086l.326.008c.66.037 1.342.074 2.022.187l1.065.188.355.077c.245.05.489.102.727.179l1.005.303c.283.099.539.202.797.304l.233.092c.349.13.676.295 1.008.467l.322.162c.223.11.445.22.655.352l.2.122c.538.327 1.095.665 1.61 1.067.502.342.979.755 1.441 1.155l.215.186c.979.765 2.14 2.427 2.189 2.498l.096.148c.163.254.325.508.456.785l.454.88c.109.221.195.444.28.666l.313.792.108.37.138.502c.067.235.133.471.174.713l.154 1.028c.026.267.032.508.037.75l.01.335c.021.265-.005.529-.029.785l-.04.47-.041.382-.104.527c-.062.327-.134.701-.264 1.065l-.088.288c-.075.247-.15.492-.259.723l-.126.298c-.091.218-.183.436-.29.645l-.488.895-.57.87c-.134.197-.273.378-.414.559l-.199.26c-.137.189-.295.368-.453.547l-.201.231c-.221.262-.458.508-.7.749-.461.491-.975.937-1.462 1.352-1.692 1.486-7.52 6.178-14.092 6.461l-1.847.079zm4.21-29.975l1.412.058c.576.052 1.172.106 1.761.225l.96.203.327.082c.218.052.437.105.647.183l.891.301.545.227.363.156c.306.115.608.272.907.431l.295.153c.2.1.399.201.586.324l.227.141c.467.292.95.593 1.402.956.433.299.852.669 1.256 1.027l.241.213c.868.647 2.143 1.971 3.117 4.467l.208.515.099.326.04.142.086.3c.06.198.118.396.153.598l.148.849c.029.219.04.411.05.602l.019.314c.027.206.015.433-.001.66l-.013.257-.009.17-.021.309-.076.455c-.05.32-.097.62-.196.925l-.073.264c-.055.212-.113.424-.203.626l-.105.273c-.07.188-.142.377-.229.56l-.385.805-.473.813c-.106.179-.222.346-.338.513l-.181.265c-.111.176-.247.348-.383.52l-.182.232c-.19.255-.4.497-.614.736-.412.48-.863.937-1.288 1.362-.45.444-.921.865-1.399 1.279-.396.332-.795.652-1.198.966 1.218-.842 2.133-1.604 2.634-2.045.538-.46 1.028-.886 1.467-1.352.232-.232.45-.456.652-.697l.217-.249c.137-.154.274-.308.396-.477l.215-.28c.127-.164.255-.329.372-.501l.545-.829.462-.85c.09-.174.169-.367.249-.56l.141-.33c.092-.198.15-.396.21-.595l.102-.326c.107-.301.168-.621.227-.93l.1-.507.029-.293.014-.172.027-.311c.02-.21.043-.421.026-.632l-.011-.371c-.005-.218-.009-.436-.029-.651l-.149-.992c-.034-.197-.091-.397-.149-.596l-.095-.347-.045-.167-.086-.297-.303-.767c-.075-.195-.151-.391-.241-.577l-.457-.886c-.12-.253-.261-.47-.402-.687l-.086-.135s-1.114-1.593-1.991-2.28l-.236-.202c-.46-.399-.896-.776-1.376-1.104-.494-.385-1.002-.693-1.539-1.02l-.208-.126c-.186-.117-.378-.21-.57-.305l-.343-.173c-.292-.151-.589-.302-.903-.418l-.246-.098c-.244-.098-.488-.195-.736-.282l-.995-.3c-.212-.069-.42-.111-.628-.153l-.375-.082-.994-.175c-.639-.106-1.294-.141-1.927-.176l-.133-.007h-.138c-.732 0-1.33.026-1.88.083-.283.015-.538.052-.793.089l-.228.032c-.336.042-.664.095-.989.166-.608.112-1.251.266-1.984.476l-1.92.654c-.322.127-.646.26-.968.398.332-.113.666-.221 1-.325l2.077-.527c.6-.124 1.223-.251 1.849-.328.319-.051.658-.088.997-.11l.212-.019c.259-.022.518-.044.779-.044l.348-.009.433-.009z" fill="#68C8CD" sketch:type="MSShapeGroup"/><path d="M110.28 50.867c.306-.005 1.709.525 1.992.537 1.621 5.597-2.463 10.005-2.504 10.051l-.623-.57c.039-.042 2.893-4.832 1.135-10.018" fill="#68C8CD" sketch:type="MSShapeGroup"/><path d="M80.688 124.592s18.959 12.624 33.908 9.967c20.894-3.715 36.112-26.772 39.425-36.296 2.518-7.24 3.785-3.798 4.094 5.338.308 9.136-3.529 12.744 2.71 19.624 6.239 6.881-3.376 13.962-13.092 18.846-8.276 4.16-44.378 13.52-67.045-17.479" fill="#F78A33" sketch:type="MSShapeGroup"/><path d="M157.377 112.725c-5.134 6.645-26.008 27.452-46.461 26.952-13.645-.333-18.67-3.948-23.559-8.105 24.894 25.953 52.463 14.45 60.385 10.468 9.715-4.883 19.531-12.153 13.091-18.845-3.583-3.724-3.859-7.658-3.456-10.47" fill="#DE761F" sketch:type="MSShapeGroup"/><path d="M120.517 148.434h-.001c-16.696-.001-29.849-8.206-42.649-26.605-.315-.454-.203-1.077.25-1.392.455-.316 1.077-.202 1.392.25l.002.002c.916 1.312 13.995 13.385 29.565 13.385h.003c1.809 0 3.602-.167 5.33-.498 21.054-4.021 35.369-26.16 38.667-35.641 1.145-3.292 2.055-4.574 3.246-4.574 1.511 0 2.505 1.707 2.792 10.206.101 2.99-.226 5.38-.514 7.488-.084.616-.165 1.208-.23 1.783-.059.527-.103 1-.125 1.465l-.007.194c-.045 2.966 1.07 5.671 3.316 8.004 2.207 2.294 3.978 6.072-.114 11.044-1.305 1.618-6.149 7.108-13.396 9.476-11.449 3.743-19.94 5.413-27.527 5.413zm-35.682-20.724c10.737 12.887 21.987 18.723 35.681 18.724 7.368 0 15.665-1.639 26.907-5.314 5.343-1.747 9.943-5.71 12.466-8.838 2.613-3.174 2.681-5.838.223-8.394-2.623-2.727-3.927-5.908-3.873-9.455l.007-.211c.025-.521.073-1.037.132-1.566.072-.632.155-1.24.241-1.871.277-2.03.592-4.331.497-7.151-.174-5.143-.618-7.161-.893-7.933-.263.412-.684 1.241-1.258 2.89-3.417 9.824-18.279 32.766-40.181 36.95-1.851.354-3.77.532-5.705.534h-.002c-9.801 0-18.518-4.425-24.242-8.365z" fill="#CE6A21" sketch:type="MSShapeGroup"/><path d="M99.841 78.057s.237-.001.681.029c.442.013 1.09.095 1.911.166.82.108 1.813.223 2.943.427 1.134.162 2.392.478 3.771.747l2.125.552 1.118.29 1.139.35c.768.241 1.563.468 2.363.736.792.298 1.607.58 2.432.877.413.15.832.29 1.247.451l1.239.525c.831.354 1.673.709 2.526 1.054.84.377 1.669.796 2.511 1.195l1.262.607c.422.2.844.402 1.248.64l2.463 1.341c.817.45 1.648.869 2.416 1.381 1.547 1.005 3.145 1.878 4.594 2.877 1.436 1.015 2.846 1.97 4.181 2.882l3.626 2.762 1.618 1.227c.517.387.966.802 1.411 1.167l2.292 1.91c1.281 1.052 2.027 1.644 2.027 1.644s-.636-.701-1.775-1.91l-2.072-2.167c-.409-.411-.82-.874-1.298-1.314l-1.523-1.366c-1.068-.946-2.206-1.999-3.468-3.043-1.297-.999-2.664-2.058-4.099-3.127-.7-.56-1.489-1.019-2.25-1.538-.767-.51-1.549-1.019-2.342-1.525-.778-.53-1.621-.968-2.45-1.437l-2.502-1.397c-.415-.238-.849-.439-1.284-.639l-1.297-.607c-.866-.398-1.718-.817-2.582-1.192-.874-.352-1.747-.688-2.61-1.017l-1.284-.493c-.43-.15-.865-.279-1.291-.418-.856-.27-1.694-.545-2.52-.794-.833-.227-1.659-.414-2.455-.615l-1.18-.29c-.389-.088-.778-.153-1.158-.222l-2.201-.391c-1.425-.176-2.723-.362-3.888-.409-1.157-.101-2.174-.085-3.006-.095-.834.021-1.486.053-1.931.099-.444.035-.678.07-.678.07" fill="#68C8CD" sketch:type="MSShapeGroup"/><path d="M101.421 83.691s.233.048.661.167c.43.103 1.048.316 1.837.553.781.273 1.729.588 2.793 1.018 1.077.39 2.245.956 3.54 1.501l1.968.974 1.035.512 1.043.575c.703.393 1.435.778 2.164 1.204.714.453 1.454.895 2.202 1.354.372.231.755.453 1.128.696l1.106.767c.741.516 1.492 1.035 2.257 1.547.746.54 1.472 1.12 2.215 1.683l1.111.852c.372.282.745.565 1.091.881l2.138 1.815c.708.607 1.436 1.187 2.084 1.845 1.308 1.3 2.695 2.481 3.909 3.754 1.199 1.287 2.384 2.51 3.505 3.675l2.986 3.444 1.333 1.531c.427.485.783.983 1.144 1.43l1.853 2.338c1.039 1.292 1.649 2.023 1.649 2.023s-.479-.816-1.347-2.231l-1.587-2.546c-.316-.485-.624-1.022-1.002-1.551l-1.213-1.648c-.852-1.144-1.751-2.407-2.773-3.686-1.066-1.242-2.187-2.559-3.374-3.898-.571-.691-1.25-1.301-1.889-1.965-.647-.656-1.309-1.314-1.982-1.97-.654-.678-1.389-1.279-2.105-1.908l-2.164-1.877c-.358-.318-.742-.604-1.126-.888l-1.147-.859c-.766-.567-1.515-1.151-2.284-1.694-.784-.523-1.57-1.03-2.347-1.528l-1.157-.745c-.39-.235-.789-.45-1.179-.673-.782-.439-1.546-.879-2.305-1.291-.769-.393-1.538-.744-2.277-1.104l-1.096-.524c-.363-.165-.73-.309-1.088-.454l-2.076-.832c-1.358-.463-2.591-.91-3.722-1.194-1.112-.335-2.111-.527-2.923-.706-.821-.15-1.466-.252-1.911-.298-.442-.056-.678-.069-.678-.069" fill="#68C8CD" sketch:type="MSShapeGroup"/><path d="M104.414 73.461s.235-.033.678-.063c.44-.046 1.094-.053 1.917-.093.827-.004 1.826-.024 2.973.027 1.145.007 2.435.15 3.837.231l2.181.26 1.146.137 1.176.193c.794.135 1.612.253 2.441.411.825.188 1.671.358 2.528.541.429.093.863.175 1.296.278l1.299.354c.871.238 1.753.476 2.645.703.883.261 1.761.564 2.649.846l1.332.432c.445.141.891.283 1.323.465l2.622.997c.87.336 1.749.639 2.58 1.042 1.668.788 3.37 1.437 4.939 2.231 1.561.813 3.086 1.569 4.532 2.292l3.965 2.249 1.769.997c.564.314 1.065.665 1.555.966l2.529 1.584c1.411.87 2.23 1.355 2.23 1.355s-.724-.608-2.016-1.653l-2.346-1.868c-.46-.352-.93-.755-1.463-1.127l-1.693-1.148c-1.186-.793-2.456-1.683-3.846-2.547-1.42-.815-2.917-1.681-4.484-2.547-.768-.46-1.612-.808-2.436-1.22-.829-.402-1.673-.801-2.527-1.195-.843-.42-1.737-.741-2.621-1.094l-2.668-1.046c-.443-.18-.9-.321-1.358-.461l-1.367-.426c-.912-.278-1.813-.578-2.719-.833-.914-.231-1.824-.446-2.723-.656l-1.339-.315c-.447-.091-.895-.16-1.336-.24-.884-.153-1.752-.312-2.604-.447-.856-.113-1.699-.187-2.515-.279l-1.208-.128c-.398-.034-.792-.047-1.178-.064l-2.234-.09c-1.435.018-2.746.008-3.907.119-1.161.056-2.166.208-2.991.311-.824.133-1.466.253-1.901.358-.435.095-.662.161-.662.161" fill="#68C8CD" sketch:type="MSShapeGroup"/><path d="M109.022 134.341c-12.634 0-25.008-5.93-35.785-17.148-8.075-8.406-12.371-16.694-12.55-17.042l2.669-1.371c.167.327 17.073 32.561 45.666 32.561 10.273 0 19.262-4.371 25.996-12.64 11.641-14.295 15.345-38.52 9.91-64.806l2.937-.607c5.617 27.16 1.684 52.321-10.52 67.307-7.324 8.993-17.118 13.746-28.323 13.746" fill="#68C8CD" sketch:type="MSShapeGroup"/><path d="M85.392 29.635c-.214-.98-.328-1.997-.328-3.044 0-2.218.517-4.3 1.415-6.175l-3.158.598 1.133-6.796-10.674 9.323c11.894-.784 4.836 13.855 4.836 13.855l6.776-7.761" fill="#CAEBF8" sketch:type="MSShapeGroup"/><path d="M83.087 26.656l8.374-9.375.44 10.436" fill="#CAEBF8" sketch:type="MSShapeGroup"/><path d="M93.511 11.751l-1.61 15.966-1.901-6.717-6.913 5.656 10.424-14.905z" fill="#68C8CD" sketch:type="MSShapeGroup"/><path d="M124.344 30.851c-.113.499.97-.296.806.182 1.287.335 1.217 3.265 2.372 3.892l3.822-8.386-7 4.312" fill="#CAEBF8" sketch:type="MSShapeGroup"/><path d="M131.556 25.583c-1.321.809-2.104 1.311-3.533 2.268-.834.564-5.107 3.986-5.919 4.587-.024.104 7.821-4.796 8.582-5.22-.57 1.21-.267.289-1.486 5.484.376-.857.608-1.387.64-1.448.853-1.654 1.669-3.325 2.433-5.02l.68-1.506-1.397.855" fill="#68C8CD" sketch:type="MSShapeGroup"/><path d="M122.115 32.94h-.011l-1.505-.007 1.207-.897c.317-.233 1.159-.897 2.118-1.651 1.545-1.216 3.296-2.594 3.818-2.948 1.433-.959 2.229-1.47 3.554-2.28l2.779-1.704-1.346 2.986c-.734 1.628-1.534 3.278-2.444 5.044-.039.077-.207.461-.477 1.077l-.15.343-.944-.316c.29-1.238.494-2.128.643-2.782.153-.664.251-1.092.328-1.399l-2.272 1.399c-5.001 3.083-5.093 3.135-5.298 3.135zm9.688-6.917l-.813 1.719c-.111.229-.174.357-.242.578.373-.775.728-1.536 1.069-2.292l.012-.026-.012.007-.098.061.084-.047z" fill="#68C8CD" sketch:type="MSShapeGroup"/><path d="M52.715 65.221c-.09-.243-2.199-5.989-2.005-11.424.158-4.419 3.602-10.694 10.531-19.183l.09-.1 25.516-25.167-2.215 14.065-2.47-.388 1.034-6.563-20.061 19.785c-8.034 9.856-9.833 15.033-9.927 17.64-.175 4.931 1.831 10.409 1.851 10.464l-2.344.871" fill="#68C8CD" sketch:type="MSShapeGroup"/><path d="M78.083 25.655l8.374-6.373-.56 9.436" fill="#CAEBF8" sketch:type="MSShapeGroup"/><path d="M89.01 14.582l-3.113 14.136v-7.718l-7.814 4.655 10.927-11.073z" fill="#68C8CD" sketch:type="MSShapeGroup"/><path d="M83.022 34.898l4.502-3.426-.302 5.073" fill="#CAEBF8" sketch:type="MSShapeGroup"/><path d="M89.457 27.925l-2.235 8.62v-4.31l-4.2 2.663 6.435-6.973z" fill="#68C8CD" sketch:type="MSShapeGroup"/><path d="M155.272 125.841s-1.75-10.375.25-15.625.75-15.125.75-15.125 3.461 8.643 1.105 17.634c-2.355 8.991-2.105 13.116-2.105 13.116" fill="#CE6A21" sketch:type="MSShapeGroup"/><path d="M194.855 86.466c-4.76-.548-9.802-.313-9.802-.313s3.173.127 9.802 1.979v-1.666" fill="#CE6A21" sketch:type="MSShapeGroup"/><path d="M73.272 102.925s4.916-2.5 10.583.333 10 3.083 10 3.083-2.5 2.084-7.833.167c-5.334-1.917-8.5-3.333-12.75-3.583" fill="#68C8CD" sketch:type="MSShapeGroup"/><path d="M90.229 107.444c-1.31 0-2.739-.276-4.25-.819-.851-.305-1.647-.598-2.402-.877-3.924-1.445-6.759-2.489-10.313-2.698l-.46-.027.411-.209c.021-.011 2.064-1.033 4.983-1.033 1.979 0 3.901.46 5.712 1.366 5.576 2.787 9.909 3.067 9.952 3.069l.316.019-.243.202c-.049.041-1.236 1.007-3.706 1.007zm-16.436-4.608c3.353.278 6.116 1.295 9.871 2.678.754.277 1.549.57 2.4.877 1.483.532 2.885.803 4.165.803 1.71 0 2.787-.485 3.262-.761-1.153-.129-4.987-.711-9.692-3.064-1.777-.887-3.661-1.337-5.601-1.337-2.052 0-3.655.511-4.405.804z" fill="#68C8CD" sketch:type="MSShapeGroup"/><path d="M141.334 53.466s6.063-.375 9.563-2.5c-4 3.438-3.938 5.313-3.938 5.313l1.063 30.479-3.25 5.5s2.629-10.107 1.147-20.929c-1.481-10.821-4.585-17.863-4.585-17.863" fill="#68C8CD" sketch:type="MSShapeGroup"/></g></svg>